if (_typeface_js && _typeface_js.loadFace) _typeface_js.loadFace({"glyphs":{"¦":{"x_min":317,"x_max":378,"ha":694,"o":"m 378 277 l 378 -237 l 317 -237 l 317 277 l 378 277 m 378 971 l 378 457 l 317 457 l 317 971 l 378 971 "},"Ž":{"x_min":-11,"x_max":828,"ha":833,"o":"m -11 0 l 0 69 l 699 922 l 160 922 l 176 999 l 828 999 l 812 922 l 115 74 l 691 74 l 676 0 l -11 0 m 390 1336 l 444 1336 l 542 1167 l 701 1336 l 764 1336 l 583 1100 l 493 1100 l 390 1336 "},"Á":{"x_min":-79,"x_max":749,"ha":804,"o":"m 218 387 l 584 387 l 490 914 l 218 387 m -79 0 l 450 999 l 555 999 l 749 0 l 654 0 l 600 311 l 180 311 l 19 0 l -79 0 m 494 1100 l 431 1100 l 596 1336 l 697 1336 l 494 1100 "},"Î":{"x_min":11,"x_max":476,"ha":325,"o":"m 11 0 l 219 999 l 314 999 l 104 0 l 11 0 m 476 1100 l 421 1100 l 322 1268 l 164 1100 l 102 1100 l 282 1336 l 372 1336 l 476 1100 "},"e":{"x_min":18,"x_max":661,"ha":746,"o":"m 121 427 l 576 427 q 577 443 577 435 q 578 462 578 451 q 526 611 578 556 q 385 666 474 666 q 219 605 286 666 q 121 427 152 545 m 536 221 l 617 221 q 506 43 587 105 q 304 -18 425 -18 q 92 62 166 -18 q 18 290 18 142 q 119 611 18 485 q 378 737 221 737 q 587 657 513 737 q 661 433 661 578 q 656 366 661 415 q 655 350 655 355 l 108 350 q 105 306 106 326 q 104 269 104 286 q 159 112 104 169 q 311 55 214 55 q 451 97 393 55 q 536 221 509 140 "},"»":{"x_min":-12,"x_max":482,"ha":553,"o":"m 70 559 l 245 410 l 225 313 l -12 164 l 8 260 l 182 372 l 54 480 l 70 559 m 308 559 l 482 410 l 460 313 l 225 164 l 245 260 l 418 372 l 291 480 l 308 559 "},"∆":{"x_min":-8,"x_max":913,"ha":905,"o":"m 783 82 l 453 918 l 120 82 l 783 82 m 511 999 l 913 0 l -8 0 l 394 999 l 511 999 "},"ò":{"x_min":18,"x_max":681,"ha":764,"o":"m 382 671 q 184 561 263 671 q 105 289 105 452 q 159 113 105 175 q 312 52 213 52 q 512 162 431 52 q 593 433 593 273 q 539 611 593 551 q 382 671 486 671 m 18 288 q 123 611 18 481 q 388 742 229 742 q 604 660 528 742 q 681 429 681 578 q 577 105 681 231 q 311 -21 474 -21 q 95 61 172 -21 q 18 288 18 143 m 500 814 l 440 814 l 248 1050 l 349 1050 l 500 814 "},"^":{"x_min":288,"x_max":1100,"ha":1389,"o":"m 733 989 l 1100 611 l 1015 611 l 694 929 l 372 611 l 288 611 l 653 989 l 733 989 "},"«":{"x_min":7,"x_max":500,"ha":553,"o":"m 416 164 l 243 311 l 264 407 l 500 559 l 479 460 l 304 351 l 433 241 l 416 164 m 180 164 l 7 311 l 26 407 l 264 559 l 243 460 l 68 351 l 197 241 l 180 164 "},"∙":{"x_min":129,"x_max":240,"ha":370,"o":"m 129 471 q 145 510 129 494 q 184 527 161 527 q 223 510 207 527 q 240 471 240 494 q 223 432 240 449 q 184 416 207 416 q 145 432 162 416 q 129 471 129 449 "},"í":{"x_min":-8,"x_max":390,"ha":282,"o":"m -8 0 l 144 721 l 227 721 l 74 0 l -8 0 m 187 814 l 124 814 l 289 1050 l 390 1050 l 187 814 "},"ˆ":{"x_min":227,"x_max":601,"ha":694,"o":"m 601 814 l 546 814 l 447 982 l 289 814 l 227 814 l 407 1050 l 497 1050 l 601 814 "},"µ":{"x_min":-75,"x_max":693,"ha":742,"o":"m 221 721 l 137 320 q 128 268 131 291 q 126 225 126 245 q 166 94 126 139 q 284 50 207 50 q 433 123 370 50 q 526 336 496 197 l 610 721 l 693 721 l 580 187 q 577 171 579 181 q 563 95 563 109 q 575 63 563 74 q 609 52 587 52 q 622 53 615 52 q 636 54 628 53 l 623 -11 q 618 -12 621 -11 q 572 -20 585 -20 q 504 1 526 -20 q 482 66 482 22 q 482 77 482 71 q 484 96 482 83 q 401 10 455 40 q 273 -20 346 -20 q 158 10 207 -20 q 87 96 109 41 l 6 -288 l -75 -288 l 139 721 l 221 721 "},"č":{"x_min":20,"x_max":670,"ha":747,"o":"m 560 240 l 649 240 q 532 49 619 118 q 322 -20 445 -20 q 100 62 180 -20 q 20 291 20 144 q 123 609 20 482 q 386 736 227 736 q 594 669 520 736 q 670 481 668 602 l 591 481 q 534 617 588 567 q 389 668 480 668 q 187 559 269 668 q 106 292 106 450 q 164 117 106 180 q 325 54 222 54 q 472 104 408 54 q 560 240 535 155 m 261 1050 l 315 1050 l 413 881 l 572 1050 l 635 1050 l 454 814 l 364 814 l 261 1050 "},"’":{"x_min":146,"x_max":316,"ha":338,"o":"m 316 999 l 290 878 q 239 737 270 775 q 146 686 207 698 l 156 735 q 209 780 190 750 q 239 878 227 811 l 192 878 l 216 999 l 316 999 "},"-":{"x_min":22,"x_max":375,"ha":454,"o":"m 22 319 l 36 400 l 375 400 l 358 319 l 22 319 "},"Q":{"x_min":64,"x_max":980,"ha":1040,"o":"m 497 191 l 551 247 l 679 119 q 830 318 776 191 q 885 596 885 444 q 807 857 885 768 q 577 946 729 946 q 276 795 395 946 q 158 414 158 644 q 240 144 158 238 q 476 50 322 50 q 536 56 504 50 q 609 79 568 63 l 497 191 m 803 -113 l 669 20 q 562 -17 608 -5 q 476 -29 517 -29 q 169 83 275 -29 q 64 411 64 196 q 107 662 64 543 q 231 869 151 782 q 390 988 303 948 q 578 1028 477 1028 q 877 916 775 1028 q 980 588 980 804 q 913 284 980 429 q 738 60 847 139 l 857 -56 l 803 -113 "},"M":{"x_min":8,"x_max":1094,"ha":1103,"o":"m 8 0 l 214 999 l 336 999 l 473 122 l 956 999 l 1094 999 l 885 0 l 799 0 l 986 891 l 495 0 l 412 0 l 277 883 l 96 0 l 8 0 "},"œ":{"x_min":18,"x_max":1211,"ha":1311,"o":"m 677 417 l 1130 417 q 1131 429 1131 423 q 1132 451 1132 436 q 1077 609 1132 551 q 929 667 1023 667 q 774 603 838 667 q 677 417 710 539 m 378 667 q 184 554 265 667 q 104 290 104 442 q 160 117 104 181 q 313 53 217 53 q 509 164 428 53 q 591 436 591 275 q 536 607 591 547 q 378 667 481 667 m 591 144 q 471 21 545 64 q 304 -21 397 -21 q 94 61 171 -21 q 18 287 18 143 q 124 608 18 480 q 393 736 230 736 q 556 695 491 736 q 655 573 621 655 q 774 695 704 655 q 934 736 844 736 q 1140 658 1069 736 q 1211 434 1211 581 q 1210 384 1211 402 q 1208 351 1210 367 l 664 351 q 661 305 662 325 q 660 271 660 285 q 714 110 660 167 q 866 53 768 53 q 1006 96 948 53 q 1091 221 1064 139 l 1173 221 q 1061 41 1143 104 q 859 -21 979 -21 q 693 19 757 -21 q 591 144 628 59 "},"{":{"x_min":120,"x_max":574,"ha":694,"o":"m 574 942 l 548 942 q 425 907 457 942 q 394 762 394 872 l 394 599 q 365 431 394 481 q 262 360 336 382 q 365 290 336 338 q 394 121 394 241 l 394 -42 q 425 -185 394 -151 q 547 -220 456 -220 l 574 -220 l 574 -280 l 544 -280 q 371 -229 417 -280 q 325 -25 325 -178 l 325 137 q 285 287 325 244 q 150 331 246 331 q 135 330 145 331 q 120 330 126 330 l 120 391 q 133 390 126 390 q 153 390 140 390 q 286 433 247 390 q 325 584 325 477 l 325 746 q 371 951 325 900 q 544 1002 417 1002 l 574 1002 l 574 942 "},"¼":{"x_min":102,"x_max":1122,"ha":1164,"o":"m 931 0 l 965 138 l 708 138 l 716 178 l 1062 528 l 1113 528 l 1031 175 l 1122 175 l 1111 138 l 1020 138 l 986 0 l 931 0 m 773 175 l 978 175 l 1042 449 l 773 175 m 233 -28 l 856 971 l 927 971 l 304 -28 l 233 -28 m 166 415 l 273 860 q 183 823 225 836 q 102 805 142 809 l 108 841 q 230 887 185 860 q 307 958 276 915 l 350 958 l 220 415 l 166 415 "},"#":{"x_min":87,"x_max":980,"ha":1068,"o":"m 663 587 l 480 587 l 413 396 l 595 396 l 663 587 m 619 986 l 501 648 l 685 648 l 805 986 l 879 986 l 761 648 l 980 648 l 958 587 l 739 587 l 671 396 l 907 396 l 887 335 l 649 335 l 531 0 l 455 0 l 574 335 l 391 335 l 270 0 l 195 0 l 313 335 l 87 335 l 108 396 l 335 396 l 403 587 l 159 587 l 178 648 l 426 648 l 545 986 l 619 986 "},"Ê":{"x_min":8,"x_max":786,"ha":787,"o":"m 8 0 l 216 999 l 786 999 l 766 917 l 291 917 l 216 559 l 683 559 l 666 478 l 198 478 l 115 78 l 653 78 l 638 0 l 8 0 m 716 1100 l 661 1100 l 562 1268 l 404 1100 l 342 1100 l 522 1336 l 612 1336 l 716 1100 "},")":{"x_min":-134,"x_max":297,"ha":439,"o":"m 189 1014 q 270 737 244 864 q 297 497 297 611 q 208 106 297 299 q -59 -282 120 -86 l -134 -282 q 129 131 48 -65 q 210 548 210 327 q 190 762 210 649 q 129 1014 171 874 l 189 1014 "},"Å":{"x_min":-79,"x_max":749,"ha":804,"o":"m 430 1183 q 456 1122 430 1147 q 518 1097 482 1097 q 581 1121 555 1097 q 607 1183 607 1146 q 581 1246 607 1220 q 518 1272 555 1272 q 456 1245 482 1272 q 430 1183 430 1219 m 365 1185 q 409 1293 365 1249 q 517 1338 453 1338 q 627 1293 582 1338 q 672 1185 672 1249 q 627 1076 672 1121 q 517 1031 582 1031 q 409 1075 453 1031 q 365 1185 365 1120 m 218 387 l 587 387 l 491 914 l 218 387 m -79 0 l 451 999 l 557 999 l 749 0 l 656 0 l 602 311 l 180 311 l 19 0 l -79 0 "},"¸":{"x_min":60,"x_max":394,"ha":694,"o":"m 60 -282 l 78 -229 q 164 -249 131 -243 q 221 -256 197 -256 q 292 -236 267 -256 q 317 -180 317 -216 q 289 -134 317 -148 q 193 -121 261 -121 l 180 -121 l 221 0 l 265 0 l 240 -76 l 254 -76 q 358 -102 322 -76 q 394 -180 394 -129 q 351 -278 394 -243 q 232 -313 309 -313 q 156 -305 196 -313 q 60 -282 116 -298 "},"a":{"x_min":-18,"x_max":616.71875,"ha":715,"o":"m 450 82 q 332 4 391 29 q 204 -20 273 -20 q 43 35 104 -20 q -18 181 -18 91 q 9 290 -18 241 q 89 370 36 339 q 313 417 148 406 q 326 419 321 418 q 351 421 334 419 q 535 541 535 435 q 491 634 535 603 q 361 666 448 666 q 210 630 262 666 q 146 518 157 594 l 69 518 q 161 680 85 627 q 373 734 237 734 q 550 685 487 734 q 614 547 614 636 q 611 508 614 530 q 603 461 608 486 l 532 131 q 529 114 530 123 q 528 95 528 106 q 537 66 528 76 q 564 57 546 57 q 590 59 577 57 q 616 66 603 61 l 603 0 q 577 -9 591 -6 q 546 -12 563 -12 q 474 11 498 -12 q 450 82 450 34 m 501 370 q 348 344 449 350 q 208 331 248 339 q 105 280 140 317 q 71 184 71 243 q 111 88 71 124 q 218 53 151 53 q 409 131 338 53 q 501 370 480 210 "},"=":{"x_min":172,"x_max":984,"ha":1157,"o":"m 984 318 l 984 262 l 172 262 l 172 318 l 984 318 m 984 564 l 984 510 l 172 510 l 172 564 l 984 564 "},"˚":{"x_min":272,"x_max":598,"ha":694,"o":"m 330 935 q 360 861 330 891 q 435 831 391 831 q 509 861 478 831 q 540 935 540 892 q 509 1010 540 979 q 435 1041 479 1041 q 360 1010 391 1041 q 330 935 330 979 m 272 934 q 319 1051 272 1003 q 434 1099 366 1099 q 549 1050 501 1099 q 598 934 598 1002 q 549 820 598 867 q 434 773 501 773 q 319 820 366 773 q 272 934 272 867 "},"ú":{"x_min":29,"x_max":693,"ha":742,"o":"m 693 721 l 540 0 l 462 0 l 484 107 q 362 14 425 45 q 230 -16 299 -16 q 82 32 136 -16 q 29 167 29 81 q 31 208 29 187 q 38 251 33 229 l 139 721 l 221 721 l 119 239 q 112 200 114 218 q 110 169 110 183 q 145 84 110 114 q 247 55 181 55 q 429 128 360 55 q 533 357 499 202 l 610 721 l 693 721 m 416 814 l 353 814 l 518 1050 l 619 1050 l 416 814 "},"¯":{"x_min":250,"x_max":614,"ha":694,"o":"m 250 882 l 266 961 l 614 961 l 597 882 l 250 882 "},"Z":{"x_min":-11,"x_max":828,"ha":833,"o":"m -11 0 l 0 69 l 699 922 l 160 922 l 176 999 l 828 999 l 812 922 l 115 74 l 691 74 l 676 0 l -11 0 "},"u":{"x_min":29,"x_max":693,"ha":742,"o":"m 693 721 l 540 0 l 462 0 l 484 107 q 362 14 425 45 q 230 -16 299 -16 q 82 32 136 -16 q 29 167 29 81 q 31 208 29 187 q 38 251 33 229 l 139 721 l 221 721 l 119 239 q 112 200 114 218 q 110 169 110 183 q 145 84 110 114 q 247 55 181 55 q 429 128 360 55 q 533 357 499 202 l 610 721 l 693 721 "},"k":{"x_min":-8,"x_max":652,"ha":659,"o":"m -8 0 l 202 999 l 284 999 l 154 380 l 542 721 l 652 721 l 368 470 l 559 0 l 468 0 l 305 415 l 128 261 l 73 0 l -8 0 "},"Ù":{"x_min":72,"x_max":950,"ha":960,"o":"m 216 999 l 308 999 l 183 398 q 171 326 175 359 q 167 266 167 294 q 232 111 167 170 q 405 53 297 53 q 614 123 539 53 q 723 354 689 194 l 859 999 l 950 999 l 823 381 q 681 61 775 151 q 408 -28 587 -28 q 163 48 254 -28 q 72 250 72 125 q 92 413 72 314 q 94 422 93 419 l 216 999 m 689 1100 l 629 1100 l 437 1336 l 538 1336 l 689 1100 "},"¢":{"x_min":25,"x_max":673,"ha":739,"o":"m 411 666 q 403 667 408 667 q 389 668 398 668 q 192 558 273 668 q 111 291 111 448 q 140 158 111 213 q 230 70 170 103 l 411 666 m 565 240 l 649 240 q 533 48 616 116 q 333 -20 450 -20 q 271 -14 314 -20 l 267 -13 l 213 -190 l 152 -183 l 207 -1 q 71 105 117 31 q 25 292 25 180 q 130 613 25 487 q 398 739 235 739 q 419 738 412 739 q 432 737 426 738 l 484 899 l 546 899 l 493 726 q 627 637 582 698 q 673 481 672 575 l 596 481 q 561 594 591 552 q 471 655 532 636 l 288 55 q 303 54 293 55 q 331 53 325 53 q 476 103 413 53 q 565 240 540 154 "},"Ş":{"x_min":29,"x_max":759,"ha":823,"o":"m 29 295 l 115 295 q 179 113 115 176 q 365 50 243 50 q 539 105 476 50 q 603 259 603 161 q 563 379 603 333 q 412 466 523 425 q 182 594 234 534 q 131 752 131 653 q 213 952 131 876 q 433 1028 296 1028 q 671 950 588 1028 q 759 723 754 872 l 673 723 q 605 894 663 839 q 433 949 547 949 q 279 897 335 949 q 223 758 223 846 q 422 558 223 634 q 495 529 470 539 q 644 421 596 486 q 693 262 693 356 q 602 49 693 128 q 356 -29 511 -29 q 115 52 202 -29 q 29 279 29 134 l 29 295 m 125 -282 l 143 -229 q 229 -249 196 -243 q 286 -256 262 -256 q 357 -236 332 -256 q 382 -180 382 -216 q 354 -134 382 -148 q 258 -121 326 -121 l 245 -121 l 286 0 l 330 0 l 305 -76 l 319 -76 q 423 -102 387 -76 q 459 -180 459 -129 q 416 -278 459 -243 q 297 -313 374 -313 q 221 -305 261 -313 q 125 -282 181 -298 "},"é":{"x_min":18,"x_max":661,"ha":746,"o":"m 121 427 l 576 427 q 577 443 577 435 q 578 462 578 451 q 526 611 578 556 q 385 666 474 666 q 219 605 286 666 q 121 427 152 545 m 536 221 l 617 221 q 506 43 587 105 q 304 -18 425 -18 q 92 62 166 -18 q 18 290 18 142 q 119 611 18 485 q 378 737 221 737 q 587 657 513 737 q 661 433 661 578 q 656 366 661 415 q 655 350 655 355 l 108 350 q 105 306 106 326 q 104 269 104 286 q 159 112 104 169 q 311 55 214 55 q 451 97 393 55 q 536 221 509 140 m 381 814 l 318 814 l 483 1050 l 584 1050 l 381 814 "},"B":{"x_min":8,"x_max":807,"ha":882,"o":"m 8 0 l 219 999 l 500 999 q 648 983 600 999 q 734 933 697 968 q 788 856 770 899 q 807 760 807 812 q 763 610 807 670 q 631 515 720 549 q 738 430 701 486 q 775 296 775 374 q 682 77 775 155 q 423 0 590 0 l 8 0 m 220 562 l 480 562 q 658 608 599 562 q 717 751 717 655 q 664 876 717 836 q 495 917 611 917 l 296 917 l 220 562 m 119 79 l 351 79 q 507 87 458 79 q 588 114 555 95 q 657 189 633 141 q 682 302 682 238 q 619 440 682 394 q 431 486 557 486 l 205 486 l 119 79 "},"…":{"x_min":87,"x_max":1145,"ha":1389,"o":"m 87 0 l 112 123 l 218 123 l 191 0 l 87 0 m 550 0 l 575 123 l 681 123 l 654 0 l 550 0 m 1014 0 l 1039 123 l 1145 123 l 1118 0 l 1014 0 "},"H":{"x_min":8,"x_max":950,"ha":960,"o":"m 8 0 l 216 999 l 311 999 l 223 568 l 764 568 l 855 999 l 950 999 l 740 0 l 645 0 l 748 490 l 206 490 l 104 0 l 8 0 "},"î":{"x_min":-8,"x_max":396,"ha":282,"o":"m -8 0 l 144 721 l 227 721 l 74 0 l -8 0 m 396 814 l 341 814 l 242 982 l 84 814 l 22 814 l 202 1050 l 292 1050 l 396 814 "},"−":{"x_min":172,"x_max":984,"ha":1157,"o":"m 984 442 l 984 386 l 172 386 l 172 442 l 984 442 "},"≠":{"x_min":172,"x_max":984,"ha":1157,"o":"m 867 751 l 720 564 l 984 564 l 984 510 l 685 510 l 537 318 l 984 318 l 984 262 l 502 262 l 329 42 l 288 75 l 434 262 l 172 262 l 172 318 l 467 318 l 617 510 l 172 510 l 172 564 l 652 564 l 824 785 l 867 751 "},"¥":{"x_min":19.765625,"x_max":786,"ha":739,"o":"m 241 0 l 325 401 l 19 401 l 29 447 l 318 447 l 273 545 l 50 545 l 59 590 l 253 590 l 92 947 l 174 947 l 382 489 l 697 947 l 786 947 l 540 590 l 733 590 l 723 545 l 507 545 l 437 447 l 702 447 l 693 401 l 409 401 l 329 0 l 241 0 "},"U":{"x_min":72,"x_max":950,"ha":960,"o":"m 216 999 l 308 999 l 183 398 q 171 326 175 359 q 167 266 167 294 q 232 111 167 170 q 405 53 297 53 q 614 123 539 53 q 723 354 689 194 l 859 999 l 950 999 l 823 381 q 681 61 775 151 q 408 -28 587 -28 q 163 48 254 -28 q 72 250 72 125 q 92 413 72 314 q 94 422 93 419 l 216 999 "},"Ñ":{"x_min":8,"x_max":953,"ha":961,"o":"m 8 0 l 219 999 l 323 999 l 678 109 l 862 999 l 953 999 l 744 0 l 632 0 l 283 874 l 104 0 l 8 0 m 817 1276 q 762 1180 792 1208 q 687 1152 732 1152 q 669 1154 679 1152 q 641 1160 660 1155 l 577 1180 q 559 1184 565 1183 q 546 1185 553 1185 q 511 1172 526 1185 q 487 1134 496 1159 l 433 1134 q 487 1233 459 1206 q 559 1261 515 1261 q 578 1259 568 1261 q 599 1253 589 1256 l 660 1235 q 668 1233 663 1235 q 700 1227 690 1227 q 737 1239 722 1227 q 762 1276 753 1250 l 817 1276 "},"F":{"x_min":8,"x_max":758,"ha":718,"o":"m 8 0 l 219 999 l 758 999 l 741 916 l 295 916 l 220 560 l 654 560 l 635 480 l 202 480 l 101 0 l 8 0 "},"*":{"x_min":140,"x_max":657,"ha":694,"o":"m 393 696 l 270 517 l 206 562 l 343 732 l 140 786 l 163 864 l 360 791 l 358 999 l 439 999 l 425 791 l 628 863 l 657 789 l 443 732 l 587 562 l 520 515 l 393 696 "},"†":{"x_min":98,"x_max":668,"ha":694,"o":"m 337 635 l 98 635 l 112 703 l 352 703 l 414 999 l 494 999 l 431 703 l 668 703 l 653 635 l 416 635 l 251 -144 l 171 -144 l 337 635 "},"∕":{"x_min":-232,"x_max":462,"ha":232,"o":"m -232 -28 l 391 971 l 462 971 l -161 -28 l -232 -28 "},"°":{"x_min":43,"x_max":414,"ha":457,"o":"m 373 797 q 330 899 373 856 q 228 942 287 942 q 126 899 168 942 q 84 797 84 857 q 126 695 84 737 q 228 653 168 653 q 330 695 288 653 q 373 797 373 737 m 229 983 q 359 928 305 983 q 414 797 414 873 q 359 665 414 719 q 228 612 305 612 q 96 665 150 612 q 43 797 43 719 q 97 928 43 874 q 229 983 152 983 "},"å":{"x_min":-18,"x_max":616.71875,"ha":715,"o":"m 325 919 q 351 858 325 883 q 413 833 377 833 q 476 857 450 833 q 502 919 502 882 q 476 982 502 956 q 413 1008 450 1008 q 351 981 377 1008 q 325 919 325 955 m 260 920 q 304 1028 260 984 q 412 1073 348 1073 q 521 1028 476 1073 q 567 920 567 984 q 521 811 567 856 q 412 766 476 766 q 304 811 348 766 q 260 920 260 856 m 451 82 q 333 4 392 29 q 205 -20 273 -20 q 43 35 104 -20 q -18 181 -18 91 q 9 290 -18 241 q 89 370 36 339 q 313 417 148 406 q 326 419 321 418 q 351 421 334 419 q 535 541 535 435 q 491 634 535 603 q 361 666 448 666 q 210 630 262 666 q 146 518 157 594 l 69 518 q 161 680 85 627 q 373 734 237 734 q 550 685 487 734 q 614 547 614 636 q 611 508 614 530 q 603 461 608 486 l 532 131 q 529 114 530 123 q 528 95 528 106 q 537 66 528 76 q 564 57 546 57 q 590 59 577 57 q 616 66 603 61 l 603 0 q 577 -9 591 -6 q 546 -12 564 -12 q 475 11 498 -12 q 451 82 451 34 m 503 370 q 349 344 450 350 q 209 331 248 339 q 106 280 141 317 q 71 184 71 243 q 111 88 71 124 q 219 53 152 53 q 410 131 339 53 q 503 370 481 210 "},"0":{"x_min":26,"x_max":714,"ha":739,"o":"m 26 331 q 60 576 26 448 q 148 790 94 704 q 277 926 203 880 q 438 973 351 973 q 643 884 573 973 q 714 624 714 795 q 677 358 714 491 q 578 127 641 225 q 458 10 530 52 q 305 -31 386 -31 q 98 63 171 -31 q 26 331 26 157 m 436 896 q 314 855 371 896 q 215 737 258 815 q 147 545 174 661 q 120 317 120 428 q 167 115 120 184 q 307 47 214 47 q 432 90 375 47 q 529 218 489 133 q 597 417 572 304 q 622 644 622 530 q 575 832 622 769 q 436 896 529 896 "},"":{"x_min":77,"x_max":1021,"ha":1097,"o":"m 567 824 q 566 834 566 828 q 565 849 565 839 q 630 1005 565 934 q 790 1094 694 1077 q 791 1079 791 1087 q 791 1052 791 1070 q 721 893 791 963 q 583 823 651 823 l 578 823 q 573 824 576 823 q 567 824 570 824 m 1021 273 q 881 40 943 105 q 743 -24 820 -24 q 654 -1 709 -24 q 571 20 599 20 q 482 -1 540 20 q 396 -24 424 -24 q 309 5 353 -24 q 221 95 265 35 q 114 295 152 190 q 77 499 77 401 q 161 741 77 648 q 380 835 246 835 q 485 811 426 835 q 569 788 544 788 q 652 812 592 788 q 755 836 711 836 q 889 809 830 836 q 999 725 949 782 q 896 626 929 680 q 863 502 863 571 q 903 366 863 425 q 1021 273 944 307 "},"”":{"x_min":145,"x_max":493,"ha":514,"o":"m 493 999 l 467 878 q 415 737 447 776 q 322 686 384 698 l 333 735 q 385 780 366 750 q 414 878 403 811 l 368 878 l 393 999 l 493 999 m 315 999 l 289 878 q 238 737 269 775 q 145 686 206 698 l 155 735 q 208 780 189 750 q 238 878 226 811 l 191 878 l 215 999 l 315 999 "},"ö":{"x_min":18,"x_max":681,"ha":764,"o":"m 382 671 q 184 561 263 671 q 105 289 105 452 q 159 113 105 175 q 312 52 213 52 q 512 162 431 52 q 593 433 593 273 q 539 611 593 551 q 382 671 486 671 m 18 288 q 123 611 18 481 q 388 742 229 742 q 604 660 528 742 q 681 429 681 578 q 577 105 681 231 q 311 -21 474 -21 q 95 61 172 -21 q 18 288 18 143 m 486 867 l 508 977 l 607 977 l 582 867 l 486 867 m 266 867 l 289 977 l 387 977 l 363 867 l 266 867 "},"Õ":{"x_min":62,"x_max":978,"ha":1040,"o":"m 573 947 q 276 793 397 947 q 156 412 156 639 q 237 146 156 242 q 463 50 319 50 q 762 205 643 50 q 882 597 882 360 q 803 857 882 768 q 573 947 725 947 m 456 -31 q 166 86 270 -31 q 62 412 62 203 q 106 661 62 539 q 230 869 151 783 q 389 987 301 947 q 577 1028 476 1028 q 874 915 770 1028 q 978 595 978 803 q 935 344 978 465 q 816 133 893 223 q 656 11 750 54 q 456 -31 562 -31 m 824 1276 q 769 1180 799 1208 q 694 1152 739 1152 q 676 1154 686 1152 q 648 1160 667 1155 l 584 1180 q 566 1184 572 1183 q 553 1185 560 1185 q 518 1172 533 1185 q 494 1134 503 1159 l 440 1134 q 494 1233 466 1206 q 566 1261 522 1261 q 585 1259 575 1261 q 606 1253 596 1256 l 667 1235 q 675 1233 670 1235 q 707 1227 697 1227 q 744 1239 729 1227 q 769 1276 760 1250 l 824 1276 "},"ć":{"x_min":20,"x_max":670,"ha":747,"o":"m 560 240 l 649 240 q 532 49 619 118 q 322 -20 445 -20 q 100 62 180 -20 q 20 291 20 144 q 123 609 20 482 q 386 736 227 736 q 594 669 520 736 q 670 481 668 602 l 591 481 q 534 617 588 567 q 389 668 480 668 q 187 559 269 668 q 106 292 106 450 q 164 117 106 180 q 325 54 222 54 q 472 104 408 54 q 560 240 535 155 m 392 814 l 329 814 l 494 1050 l 595 1050 l 392 814 "},"þ":{"x_min":-74,"x_max":718,"ha":800,"o":"m 417 667 q 221 557 300 667 q 141 289 141 448 q 195 116 141 179 q 344 53 250 53 q 547 160 467 53 q 628 434 628 268 q 572 605 628 543 q 417 667 516 667 m 10 -288 l -74 -288 l 200 999 l 284 999 l 205 629 q 309 709 252 683 q 437 736 367 736 q 641 651 565 736 q 718 426 718 567 q 614 110 718 238 q 356 -17 511 -17 q 199 24 264 -17 q 103 144 134 65 l 10 -288 "},"]":{"x_min":-136,"x_max":388,"ha":458,"o":"m 388 999 l 123 -285 l -136 -285 l -119 -217 l 58 -217 l 292 931 l 116 931 l 131 999 l 388 999 "},"8":{"x_min":32,"x_max":689,"ha":739,"o":"m 359 475 q 188 411 252 475 q 124 241 124 348 q 180 98 124 152 q 331 45 236 45 q 499 108 435 45 q 563 276 563 172 q 507 421 563 367 q 359 475 452 475 m 416 900 q 278 847 332 900 q 225 717 225 795 q 274 589 225 634 q 413 544 324 544 q 548 598 494 544 q 602 733 602 652 q 552 855 602 811 q 416 900 503 900 m 241 526 q 161 612 186 566 q 136 715 136 658 q 213 903 136 833 q 422 974 290 974 q 614 907 540 974 q 689 737 689 841 q 645 588 689 648 q 517 500 601 528 q 620 410 586 465 q 654 277 654 354 q 568 51 654 132 q 330 -29 483 -29 q 110 41 189 -29 q 32 239 32 112 q 85 422 32 349 q 241 526 139 495 "},"R":{"x_min":8,"x_max":828,"ha":875,"o":"m 295 914 l 213 529 l 442 529 q 662 583 591 529 q 734 749 734 637 q 682 872 734 831 q 526 914 630 914 l 295 914 m 219 999 l 513 999 q 746 935 665 999 q 828 755 828 872 q 774 575 828 645 q 618 479 721 505 q 693 409 670 450 q 717 308 717 368 q 716 273 717 285 q 715 250 716 260 l 705 127 q 704 100 705 113 q 704 73 704 88 q 708 36 704 50 q 720 10 711 23 l 720 0 l 617 0 q 611 26 613 14 q 610 50 610 39 q 612 95 610 62 q 612 108 612 104 l 622 239 q 623 261 623 248 q 624 304 624 274 q 583 416 624 383 q 436 450 542 450 l 196 450 l 101 0 l 8 0 l 219 999 "},"o":{"x_min":18,"x_max":681,"ha":764,"o":"m 382 671 q 184 561 263 671 q 105 289 105 452 q 159 113 105 175 q 312 52 213 52 q 512 162 431 52 q 593 433 593 273 q 539 611 593 551 q 382 671 486 671 m 18 288 q 123 611 18 481 q 388 742 229 742 q 604 660 528 742 q 681 429 681 578 q 577 105 681 231 q 311 -21 474 -21 q 95 61 172 -21 q 18 288 18 143 "},"5":{"x_min":36,"x_max":689,"ha":739,"o":"m 123 228 q 177 95 126 144 q 315 46 229 46 q 493 129 422 46 q 564 342 564 213 q 509 495 564 439 q 360 552 454 552 q 254 527 304 552 q 157 452 205 503 l 83 459 l 223 943 l 689 943 l 672 865 l 277 865 l 190 566 q 282 610 235 595 q 380 625 329 625 q 576 546 501 625 q 652 341 652 468 q 557 74 652 177 q 312 -29 463 -29 q 111 41 186 -29 q 36 228 36 111 l 123 228 "},"õ":{"x_min":18,"x_max":681,"ha":764,"o":"m 382 671 q 184 561 263 671 q 105 289 105 452 q 159 113 105 175 q 312 52 213 52 q 512 162 431 52 q 593 433 593 273 q 539 611 593 551 q 382 671 486 671 m 18 288 q 123 611 18 481 q 388 742 229 742 q 604 660 528 742 q 681 429 681 578 q 577 105 681 231 q 311 -21 474 -21 q 95 61 172 -21 q 18 288 18 143 m 628 990 q 573 894 603 922 q 498 866 543 866 q 480 868 490 866 q 452 874 471 869 l 388 894 q 370 898 376 897 q 357 899 364 899 q 322 886 337 899 q 298 848 307 873 l 244 848 q 298 947 270 920 q 370 975 326 975 q 389 973 379 975 q 410 967 400 970 l 471 949 q 479 947 474 949 q 511 941 501 941 q 548 953 533 941 q 573 990 564 964 l 628 990 "},",":{"x_min":-8,"x_max":163,"ha":370,"o":"m -8 -188 l 0 -135 q 51 -96 33 -123 q 83 0 69 -68 l 34 0 l 62 119 l 163 119 l 136 0 q 82 -139 114 -100 q -8 -188 51 -179 "},"d":{"x_min":20,"x_max":803,"ha":798,"o":"m 384 667 q 185 559 265 667 q 106 290 106 451 q 160 117 106 179 q 311 55 214 55 q 513 160 436 55 q 591 438 591 266 q 537 607 591 547 q 384 667 483 667 m 515 0 l 533 89 q 427 7 484 34 q 301 -20 369 -20 q 96 64 172 -20 q 20 290 20 148 q 123 607 20 478 q 379 736 226 736 q 533 696 472 736 q 629 572 593 657 l 719 999 l 803 999 l 590 0 l 515 0 "},"\"":{"x_min":68,"x_max":305,"ha":374,"o":"m 305 973 l 305 598 l 247 598 l 247 973 l 305 973 m 126 973 l 126 598 l 68 598 l 68 973 l 126 973 "},"˙":{"x_min":370,"x_max":496,"ha":694,"o":"m 370 864 l 395 981 l 496 981 l 470 864 l 370 864 "},"ê":{"x_min":18,"x_max":661,"ha":746,"o":"m 121 427 l 576 427 q 577 443 577 435 q 578 462 578 451 q 526 611 578 556 q 385 666 474 666 q 219 605 286 666 q 121 427 152 545 m 536 221 l 617 221 q 506 43 587 105 q 304 -18 425 -18 q 92 62 166 -18 q 18 290 18 142 q 119 611 18 485 q 378 737 221 737 q 587 657 513 737 q 661 433 661 578 q 656 366 661 415 q 655 350 655 355 l 108 350 q 105 306 106 326 q 104 269 104 286 q 159 112 104 169 q 311 55 214 55 q 451 97 393 55 q 536 221 509 140 m 590 814 l 535 814 l 436 982 l 278 814 l 216 814 l 396 1050 l 486 1050 l 590 814 "},"„":{"x_min":-26,"x_max":322,"ha":514,"o":"m 322 122 l 296 0 q 244 -139 276 -100 q 151 -191 213 -177 l 162 -140 q 214 -95 195 -126 q 243 0 232 -65 l 197 0 l 222 122 l 322 122 m 144 122 l 118 0 q 67 -139 98 -101 q -26 -191 35 -177 l -15 -140 q 37 -95 18 -126 q 67 0 55 -65 l 19 0 l 45 122 l 144 122 "},"Â":{"x_min":-79,"x_max":749,"ha":804,"o":"m 218 387 l 584 387 l 490 914 l 218 387 m -79 0 l 450 999 l 555 999 l 749 0 l 654 0 l 600 311 l 180 311 l 19 0 l -79 0 m 703 1100 l 648 1100 l 549 1268 l 391 1100 l 329 1100 l 509 1336 l 599 1336 l 703 1100 "},"Í":{"x_min":11,"x_max":470,"ha":325,"o":"m 11 0 l 219 999 l 314 999 l 104 0 l 11 0 m 267 1100 l 204 1100 l 369 1336 l 470 1336 l 267 1100 "},"´":{"x_min":329,"x_max":595,"ha":694,"o":"m 392 814 l 329 814 l 494 1050 l 595 1050 l 392 814 "},"Ú":{"x_min":72,"x_max":950,"ha":960,"o":"m 216 999 l 308 999 l 183 398 q 171 326 175 359 q 167 266 167 294 q 232 111 167 170 q 405 53 297 53 q 614 123 539 53 q 723 354 689 194 l 859 999 l 950 999 l 823 381 q 681 61 775 151 q 408 -28 587 -28 q 163 48 254 -28 q 72 250 72 125 q 92 413 72 314 q 94 422 93 419 l 216 999 m 585 1100 l 522 1100 l 687 1336 l 788 1336 l 585 1100 "},"Ý":{"x_min":36,"x_max":739,"ha":668,"o":"m 194 0 l 287 445 l 36 999 l 127 999 l 339 523 l 637 999 l 739 999 l 370 422 l 286 0 l 194 0 m 439 1100 l 376 1100 l 541 1336 l 642 1336 l 439 1100 "},"Ω":{"x_min":87,"x_max":987,"ha":1075,"o":"m 984 82 l 984 0 l 595 0 l 595 69 q 818 277 743 161 q 893 533 893 394 q 793 830 893 715 q 537 945 694 945 q 280 830 380 945 q 181 533 181 715 q 255 277 181 394 q 479 69 330 161 l 479 0 l 91 0 l 91 82 l 331 82 q 146 282 206 171 q 87 532 87 393 q 214 886 87 747 q 537 1026 342 1026 q 859 886 731 1026 q 987 532 987 747 q 926 282 987 393 q 742 82 866 171 l 984 82 "},"Ö":{"x_min":62,"x_max":978,"ha":1040,"o":"m 573 947 q 276 793 397 947 q 156 412 156 639 q 237 146 156 242 q 463 50 319 50 q 762 205 643 50 q 882 597 882 360 q 803 857 882 768 q 573 947 725 947 m 456 -31 q 166 86 270 -31 q 62 412 62 203 q 106 661 62 539 q 230 869 151 783 q 389 987 301 947 q 577 1028 476 1028 q 874 915 770 1028 q 978 595 978 803 q 935 344 978 465 q 816 133 893 223 q 656 11 750 54 q 456 -31 562 -31 m 682 1153 l 704 1263 l 803 1263 l 778 1153 l 682 1153 m 462 1153 l 485 1263 l 583 1263 l 559 1153 l 462 1153 "},"z":{"x_min":-62,"x_max":586,"ha":615,"o":"m -62 0 l -44 86 l 473 648 l 50 648 l 65 721 l 586 721 l 567 633 l 51 72 l 510 72 l 494 0 l -62 0 "},"™":{"x_min":186,"x_max":925,"ha":1157,"o":"m 627 986 l 745 687 l 855 986 l 925 986 l 925 627 l 885 627 l 885 951 l 762 627 l 729 627 l 600 951 l 600 627 l 559 627 l 559 986 l 627 986 m 470 986 l 470 951 l 352 951 l 352 627 l 307 627 l 307 951 l 186 951 l 186 986 l 470 986 "},"ã":{"x_min":-18,"x_max":616.71875,"ha":715,"o":"m 450 82 q 332 4 391 29 q 204 -20 273 -20 q 43 35 104 -20 q -18 181 -18 91 q 9 290 -18 241 q 89 370 36 339 q 313 417 148 406 q 326 419 321 418 q 351 421 334 419 q 535 541 535 435 q 491 634 535 603 q 361 666 448 666 q 210 630 262 666 q 146 518 157 594 l 69 518 q 161 680 85 627 q 373 734 237 734 q 550 685 487 734 q 614 547 614 636 q 611 508 614 530 q 603 461 608 486 l 532 131 q 529 114 530 123 q 528 95 528 106 q 537 66 528 76 q 564 57 546 57 q 590 59 577 57 q 616 66 603 61 l 603 0 q 577 -9 591 -6 q 546 -12 563 -12 q 474 11 498 -12 q 450 82 450 34 m 501 370 q 348 344 449 350 q 208 331 248 339 q 105 280 140 317 q 71 184 71 243 q 111 88 71 124 q 218 53 151 53 q 409 131 338 53 q 501 370 480 210 m 606 990 q 551 894 581 922 q 476 866 521 866 q 458 868 468 866 q 430 874 449 869 l 366 894 q 348 898 354 897 q 335 899 342 899 q 300 886 315 899 q 276 848 285 873 l 222 848 q 276 947 248 920 q 348 975 304 975 q 367 973 357 975 q 388 967 378 970 l 449 949 q 457 947 452 949 q 489 941 479 941 q 526 953 511 941 q 551 990 542 964 l 606 990 "},"æ":{"x_min":-18,"x_max":1124,"ha":1209,"o":"m 586 419 l 1040 419 q 1041 438 1041 429 q 1042 463 1042 448 q 991 612 1042 559 q 850 666 940 666 q 675 602 744 666 q 586 419 607 538 m 501 365 q 352 341 453 347 q 208 326 251 335 q 105 277 140 314 q 71 182 71 241 q 111 88 71 123 q 218 53 151 53 q 415 135 340 53 q 501 365 491 218 m 507 140 q 365 20 440 59 q 203 -18 291 -18 q 43 37 104 -18 q -18 181 -18 93 q 60 350 -18 293 q 314 419 138 406 q 345 421 326 420 q 534 541 534 433 q 490 635 534 605 q 354 666 447 666 q 209 628 260 666 q 150 519 157 591 l 69 519 q 160 681 85 625 q 365 737 236 737 q 511 709 452 737 q 597 626 569 681 q 710 710 652 684 q 840 737 767 737 q 1052 657 981 737 q 1124 421 1124 578 q 1122 386 1124 407 q 1119 342 1121 366 l 572 342 q 569 299 570 318 q 568 263 568 279 q 624 109 568 165 q 776 53 679 53 q 916 96 858 53 q 1001 221 974 139 l 1083 221 q 972 43 1053 105 q 769 -18 890 -18 q 609 20 673 -18 q 507 140 544 59 "},"É":{"x_min":8,"x_max":786,"ha":787,"o":"m 8 0 l 216 999 l 786 999 l 766 917 l 291 917 l 216 559 l 683 559 l 666 478 l 198 478 l 115 78 l 653 78 l 638 0 l 8 0 m 507 1100 l 444 1100 l 609 1336 l 710 1336 l 507 1100 "},"~":{"x_min":121,"x_max":1038,"ha":1157,"o":"m 1038 438 q 900 363 966 388 q 775 339 835 339 q 595 380 708 339 q 580 385 584 384 q 557 393 572 388 q 383 434 444 434 q 264 408 327 434 q 121 325 202 383 l 121 388 q 257 462 192 438 q 383 487 322 487 q 567 445 451 487 q 580 441 575 442 q 598 434 585 438 q 775 393 712 393 q 894 418 831 393 q 1038 500 956 443 l 1038 438 "},"³":{"x_min":20,"x_max":451,"ha":488,"o":"m 75 530 q 115 438 77 471 q 215 405 152 405 q 323 444 281 405 q 366 545 366 483 q 329 625 366 598 q 216 652 292 652 l 189 652 l 199 696 l 220 696 l 233 696 q 354 726 313 696 q 395 813 395 756 q 361 886 395 858 q 275 915 328 915 q 185 885 220 915 q 137 801 149 855 l 81 801 q 144 917 94 877 q 277 958 195 958 q 402 918 354 958 q 451 816 451 878 q 422 725 451 763 q 342 670 393 687 q 402 618 382 651 q 423 539 423 586 q 367 407 423 456 q 216 359 311 359 q 73 404 125 359 q 20 530 21 449 l 75 530 "},"¡":{"x_min":71,"x_max":376,"ha":433,"o":"m 306 763 l 238 362 l 162 0 l 71 0 l 146 362 l 250 763 l 306 763 m 376 999 l 349 876 l 250 876 l 273 999 l 376 999 "},"[":{"x_min":11,"x_max":535,"ha":458,"o":"m 11 -287 l 275 997 l 535 997 l 518 929 l 340 929 l 107 -219 l 282 -219 l 268 -287 l 11 -287 "},"%":{"x_min":52,"x_max":1074,"ha":1125,"o":"m 695 230 q 738 124 695 168 q 844 81 782 81 q 949 124 906 81 q 993 230 993 167 q 950 336 993 293 q 844 379 907 379 q 738 335 782 379 q 695 230 695 292 m 614 230 q 680 393 614 326 q 844 460 747 460 q 1007 393 941 460 q 1074 230 1074 327 q 1007 67 1074 134 q 844 0 940 0 q 681 67 748 0 q 614 230 614 134 m 216 -27 l 839 970 l 909 970 l 288 -27 l 216 -27 m 133 712 q 176 607 133 650 q 282 564 219 564 q 387 606 344 564 q 431 712 431 649 q 387 818 431 775 q 282 862 344 862 q 176 818 220 862 q 133 712 133 774 m 52 713 q 118 876 52 810 q 281 943 184 943 q 445 876 378 943 q 512 713 512 810 q 444 550 512 617 q 281 483 376 483 q 118 549 184 483 q 52 713 52 616 "},"P":{"x_min":8,"x_max":786,"ha":810,"o":"m 202 511 l 421 511 q 629 566 563 511 q 696 740 696 621 q 640 874 696 831 q 463 917 584 917 l 284 917 l 202 511 m 8 0 l 209 999 l 453 999 q 598 988 550 999 q 683 952 647 977 q 758 866 731 921 q 786 748 786 812 q 754 585 786 651 q 657 479 723 520 q 550 439 611 451 q 348 428 488 428 l 184 428 l 102 0 l 8 0 "},"∏":{"x_min":111,"x_max":900,"ha":1011,"o":"m 111 999 l 900 999 l 900 -266 l 808 -266 l 808 916 l 203 916 l 203 -266 l 111 -266 l 111 999 "},"_":{"x_min":0,"x_max":694,"ha":694,"o":"m 694 -274 l 694 -328 l 0 -328 l 0 -274 l 694 -274 "},"ñ":{"x_min":-12,"x_max":660,"ha":742,"o":"m -12 0 l 140 721 l 218 721 l 196 611 q 317 704 254 673 q 450 736 381 736 q 598 686 544 736 q 652 551 652 637 q 648 510 651 531 q 641 467 646 490 l 541 0 l 459 0 l 562 479 q 568 515 566 497 q 571 550 571 533 q 535 634 571 604 q 433 664 499 664 q 250 590 320 664 q 147 360 180 516 l 70 0 l -12 0 m 660 990 q 605 894 635 922 q 530 866 575 866 q 512 868 522 866 q 484 874 503 869 l 420 894 q 402 898 408 897 q 389 899 396 899 q 354 886 369 899 q 330 848 339 873 l 276 848 q 330 947 302 920 q 402 975 358 975 q 421 973 411 975 q 442 967 432 970 l 503 949 q 511 947 506 949 q 543 941 533 941 q 580 953 565 941 q 605 990 596 964 l 660 990 "},"‚":{"x_min":-26,"x_max":144,"ha":338,"o":"m 144 122 l 118 0 q 67 -139 98 -101 q -26 -191 35 -177 l -15 -140 q 37 -95 18 -126 q 67 0 55 -65 l 19 0 l 45 122 l 144 122 "},"Æ":{"x_min":-103,"x_max":1250,"ha":1253,"o":"m 223 387 l 586 387 l 698 917 l 531 917 l 223 387 m -103 0 l 491 999 l 1250 999 l 1231 917 l 788 917 l 714 559 l 1148 559 l 1131 478 l 695 478 l 612 78 l 1117 78 l 1102 0 l 505 0 l 569 306 l 177 306 l 0 0 l -103 0 "},"₣":{"x_min":8,"x_max":1155,"ha":1120,"o":"m 8 0 l 219 999 l 758 999 l 741 916 l 295 916 l 220 560 l 654 560 l 635 480 l 202 480 l 101 0 l 8 0 m 713 0 l 859 721 l 936 721 l 916 626 q 1011 713 969 687 q 1096 739 1052 739 q 1124 736 1110 739 q 1155 727 1139 733 l 1137 647 q 1107 650 1119 649 q 1088 652 1096 651 q 954 583 1005 652 q 871 362 902 515 l 798 0 l 713 0 "},"ğ":{"x_min":-4,"x_max":747,"ha":800,"o":"m 393 667 q 189 558 271 667 q 107 292 107 449 q 161 117 107 181 q 313 54 216 54 q 515 160 437 54 q 594 432 594 266 q 540 604 594 542 q 393 667 487 667 m -4 -78 l 77 -78 q 130 -181 83 -146 q 261 -216 177 -216 q 442 -152 383 -216 q 530 81 501 -89 q 425 7 482 32 q 299 -17 367 -17 q 94 66 171 -17 q 18 287 18 149 q 123 606 18 476 q 382 736 229 736 q 539 693 476 736 q 633 568 602 651 l 664 720 l 747 720 l 601 28 q 487 -224 560 -158 q 263 -290 413 -290 q 72 -236 140 -290 q -4 -78 4 -182 m 319 1023 l 374 1023 l 374 1010 q 399 943 374 966 q 475 921 425 921 q 574 945 535 921 q 636 1023 612 970 l 693 1023 q 610 886 665 931 q 470 842 555 842 q 356 880 395 842 q 318 993 318 919 q 318 1011 318 1005 q 319 1023 318 1017 "},"ª":{"x_min":-14,"x_max":462.359375,"ha":536,"o":"m 337 550 q 248 496 293 513 q 152 480 204 480 q 31 519 77 480 q -14 621 -14 558 q 6 697 -14 663 q 66 753 27 731 q 238 787 112 779 l 243 787 q 267 789 251 787 q 401 873 401 799 q 368 939 401 917 q 269 961 335 961 q 156 935 195 961 q 109 858 117 910 l 52 858 q 120 970 64 933 q 280 1008 177 1008 q 413 974 366 1008 q 461 878 461 940 q 458 852 461 868 q 452 817 456 837 l 398 587 q 396 574 396 580 q 395 560 395 569 q 402 540 395 547 q 423 533 409 533 q 443 535 435 534 q 462 540 452 537 l 452 494 q 433 487 443 489 q 409 485 423 485 q 354 501 372 485 q 337 550 337 517 m 375 753 q 260 735 336 740 q 155 725 185 731 q 78 690 104 716 q 52 623 52 664 q 82 556 52 581 q 163 531 113 531 q 306 586 253 531 q 375 753 358 641 "},"Œ":{"x_min":62,"x_max":1462,"ha":1464,"o":"m 724 193 l 847 783 q 738 907 804 867 q 574 947 672 947 q 275 795 394 947 q 156 414 156 644 q 234 149 156 245 q 449 53 313 53 q 596 87 528 53 q 724 193 663 122 m 684 0 l 700 78 q 578 -2 643 23 q 436 -29 512 -29 q 162 88 263 -29 q 62 409 62 206 q 105 658 62 539 q 227 869 148 777 q 387 987 295 947 q 586 1028 478 1028 q 751 993 682 1028 q 870 889 821 959 l 893 999 l 1462 999 l 1442 917 l 967 917 l 893 559 l 1360 559 l 1343 478 l 875 478 l 790 78 l 1328 78 l 1314 0 l 684 0 "},"T":{"x_min":118,"x_max":806,"ha":739,"o":"m 226 0 l 422 918 l 118 918 l 134 999 l 806 999 l 789 918 l 516 918 l 320 0 l 226 0 "},"š":{"x_min":-9,"x_max":624,"ha":671,"o":"m 74 225 q 134 92 82 136 q 282 49 185 49 q 418 87 369 49 q 468 194 468 126 q 289 338 468 271 l 273 345 q 120 431 160 388 q 80 541 80 474 q 148 684 80 630 q 332 739 217 739 q 520 683 454 739 q 592 519 585 627 l 515 519 q 460 634 507 597 q 320 672 412 672 q 206 638 250 672 q 162 551 162 604 q 190 480 162 508 q 315 413 218 452 q 509 308 466 354 q 553 193 553 262 q 476 38 553 98 q 275 -21 399 -21 q 69 42 142 -21 q -9 225 -2 105 l 74 225 m 250 1050 l 304 1050 l 402 881 l 561 1050 l 624 1050 l 443 814 l 353 814 l 250 1050 "},"Þ":{"x_min":8,"x_max":753,"ha":810,"o":"m 168 332 l 387 332 q 596 387 530 332 q 663 559 663 442 q 605 693 663 650 q 429 737 548 737 l 251 737 l 168 332 m 8 0 l 209 999 l 302 999 l 266 818 l 419 818 q 672 755 591 818 q 753 560 753 693 q 720 403 753 469 q 622 298 687 337 q 518 260 578 271 q 315 249 459 249 l 151 249 l 103 0 l 8 0 "},"j":{"x_min":-157,"x_max":294,"ha":286,"o":"m 175 885 l 198 999 l 294 999 l 270 885 l 175 885 m -157 -281 l -142 -209 q -119 -211 -126 -211 q -106 -212 -112 -212 q -56 -190 -73 -212 q -23 -98 -38 -168 l 148 721 l 230 721 l 55 -110 q -1 -248 34 -210 q -106 -286 -37 -286 q -128 -284 -115 -286 q -157 -281 -141 -283 "},"1":{"x_min":160,"x_max":555,"ha":739,"o":"m 263 0 l 433 797 q 293 729 359 753 q 160 697 226 705 l 170 761 q 368 846 296 798 q 485 971 439 895 l 555 971 l 348 0 l 263 0 "},"›":{"x_min":-12,"x_max":245,"ha":317,"o":"m 70 558 l 245 410 l 224 313 l -12 164 l 8 260 l 182 372 l 54 480 l 70 558 "},"<":{"x_min":179,"x_max":978,"ha":1157,"o":"m 978 700 l 269 413 l 978 125 l 978 66 l 179 392 l 179 434 l 978 762 l 978 700 "},"t":{"x_min":29,"x_max":372,"ha":357,"o":"m 239 0 q 193 -12 211 -9 q 157 -16 174 -16 q 61 10 93 -16 q 29 88 29 36 q 32 135 29 109 q 44 197 36 162 l 140 656 l 33 656 l 47 721 l 156 721 l 199 921 l 281 921 l 238 721 l 372 721 l 357 656 l 222 656 l 121 169 q 115 131 117 146 q 113 111 113 117 q 127 68 113 80 q 176 57 140 57 q 211 60 191 57 q 255 71 231 64 l 239 0 "},"¬":{"x_min":172,"x_max":984,"ha":1157,"o":"m 984 581 l 984 241 l 931 241 l 931 525 l 172 525 l 172 581 l 984 581 "},"ù":{"x_min":29,"x_max":693,"ha":742,"o":"m 693 721 l 540 0 l 462 0 l 484 107 q 362 14 425 45 q 230 -16 299 -16 q 82 32 136 -16 q 29 167 29 81 q 31 208 29 187 q 38 251 33 229 l 139 721 l 221 721 l 119 239 q 112 200 114 218 q 110 169 110 183 q 145 84 110 114 q 247 55 181 55 q 429 128 360 55 q 533 357 499 202 l 610 721 l 693 721 m 520 814 l 460 814 l 268 1050 l 369 1050 l 520 814 "},"ï":{"x_min":-8,"x_max":398,"ha":282,"o":"m -8 0 l 144 721 l 227 721 l 74 0 l -8 0 m 277 867 l 299 977 l 398 977 l 373 867 l 277 867 m 57 867 l 80 977 l 178 977 l 154 867 l 57 867 "},"Ò":{"x_min":62,"x_max":978,"ha":1040,"o":"m 573 947 q 276 793 397 947 q 156 412 156 639 q 237 146 156 242 q 463 50 319 50 q 762 205 643 50 q 882 597 882 360 q 803 857 882 768 q 573 947 725 947 m 456 -31 q 166 86 270 -31 q 62 412 62 203 q 106 661 62 539 q 230 869 151 783 q 389 987 301 947 q 577 1028 476 1028 q 874 915 770 1028 q 978 595 978 803 q 935 344 978 465 q 816 133 893 223 q 656 11 750 54 q 456 -31 562 -31 m 696 1100 l 636 1100 l 444 1336 l 545 1336 l 696 1100 "},"&":{"x_min":32,"x_max":804,"ha":905,"o":"m 352 527 q 176 416 231 479 q 121 262 121 353 q 182 112 121 171 q 341 54 244 54 q 471 80 410 54 q 584 159 532 106 l 352 527 m 389 620 q 524 700 479 653 q 570 807 570 747 q 538 894 570 862 q 452 926 506 926 q 356 891 390 926 q 322 793 322 856 q 337 718 322 759 q 389 620 353 678 m 688 0 l 628 92 q 489 3 558 31 q 337 -25 420 -25 q 115 54 199 -25 q 32 265 32 134 q 100 453 32 373 q 312 590 169 533 q 255 704 271 659 q 240 792 240 749 q 296 939 240 882 q 442 997 353 997 q 597 945 539 997 q 655 809 655 893 q 601 670 655 730 q 431 554 548 609 l 639 227 q 689 321 670 270 q 718 441 708 373 l 804 441 q 765 285 794 356 q 685 152 736 214 l 785 0 l 688 0 "},"":{"x_min":-29,"x_max":758,"ha":739,"o":"m -29 368 l -2 426 l 92 426 q 99 487 95 456 q 109 544 104 518 l 8 544 l 34 602 l 123 602 q 274 872 172 771 q 500 973 375 973 q 682 897 614 973 q 758 689 749 822 l 678 689 q 624 844 670 793 q 492 896 578 896 q 329 815 404 896 q 218 602 254 734 l 651 602 l 625 544 l 203 544 q 192 487 197 522 q 186 426 187 452 l 566 426 l 540 368 l 183 368 l 183 361 q 235 128 183 209 q 385 47 287 47 q 511 101 450 47 q 609 247 572 156 l 693 247 q 566 44 652 120 q 377 -31 479 -31 q 165 71 241 -31 q 90 357 90 173 l 90 368 l -29 368 "},"˝":{"x_min":298,"x_max":682,"ha":694,"o":"m 595 1050 l 682 1050 l 512 814 l 462 814 l 595 1050 m 417 1050 l 503 1050 l 346 814 l 298 814 l 417 1050 "},"I":{"x_min":11,"x_max":314,"ha":325,"o":"m 11 0 l 219 999 l 314 999 l 104 0 l 11 0 "},"G":{"x_min":64,"x_max":940.421875,"ha":1023,"o":"m 780 131 q 634 12 712 50 q 463 -26 557 -26 q 170 93 277 -26 q 64 419 64 212 q 105 656 64 541 q 221 860 146 771 q 381 982 289 940 q 579 1025 473 1025 q 827 942 732 1025 q 935 718 923 859 l 848 718 q 763 887 834 825 q 582 949 693 949 q 280 797 401 949 q 160 419 160 645 q 244 150 160 248 q 475 52 328 52 q 703 153 604 52 q 834 424 803 255 l 497 424 l 517 500 l 940 500 l 830 -1 l 753 -1 l 780 131 "},"`":{"x_min":244,"x_max":496,"ha":694,"o":"m 496 814 l 436 814 l 244 1050 l 345 1050 l 496 814 "},"·":{"x_min":129,"x_max":240,"ha":370,"o":"m 129 471 q 145 510 129 494 q 184 527 161 527 q 223 510 207 527 q 240 471 240 494 q 223 432 240 449 q 184 416 207 416 q 145 432 162 416 q 129 471 129 449 "},"¿":{"x_min":21,"x_max":615,"ha":682,"o":"m 513 999 l 490 879 l 392 879 l 415 999 l 513 999 m 459 754 q 417 590 450 653 q 318 482 385 528 q 259 444 299 468 q 107 234 107 350 q 162 104 107 152 q 312 56 217 56 q 466 115 408 56 q 529 278 524 174 l 615 277 q 531 59 611 137 q 312 -18 452 -18 q 98 49 176 -18 q 21 232 21 116 q 60 380 21 319 q 236 523 99 440 q 342 618 315 571 q 380 754 370 665 l 459 754 "},"ý":{"x_min":-72,"x_max":618,"ha":604,"o":"m -72 -281 l -58 -209 q -30 -211 -42 -210 q -9 -213 -19 -213 q 45 -196 23 -213 q 90 -138 67 -180 l 165 7 l 19 721 l 103 721 l 222 109 l 531 721 l 618 721 l 181 -139 q 95 -262 134 -233 q 0 -292 56 -292 q -32 -289 -15 -292 q -72 -281 -50 -286 m 347 814 l 284 814 l 449 1050 l 550 1050 l 347 814 "},"º":{"x_min":14,"x_max":512,"ha":574,"o":"m 288 964 q 139 887 198 964 q 80 697 80 811 q 120 574 80 617 q 235 531 161 531 q 384 608 324 531 q 445 797 445 685 q 405 921 445 879 q 288 964 366 964 m 14 697 q 93 922 14 831 q 292 1014 173 1014 q 454 956 396 1014 q 512 794 512 899 q 434 568 512 656 q 233 481 356 481 q 72 537 130 481 q 14 697 14 594 "},"∞":{"x_min":161,"x_max":995,"ha":1157,"o":"m 602 377 q 687 273 638 307 q 796 239 735 239 q 916 291 869 239 q 963 426 963 344 q 919 559 963 507 q 811 612 876 612 q 704 559 752 612 q 602 377 657 507 m 554 454 q 471 557 519 523 q 360 592 422 592 q 240 539 286 592 q 194 405 194 487 q 237 273 194 325 q 345 221 280 221 q 452 272 404 221 q 554 454 499 323 m 566 483 q 665 623 611 577 q 785 669 719 669 q 934 597 873 669 q 995 417 995 525 q 940 236 995 305 q 798 168 886 168 q 686 209 734 168 q 589 345 637 250 q 488 207 541 251 q 371 164 436 164 q 222 236 283 164 q 161 414 161 308 q 215 596 161 527 q 357 665 269 665 q 474 621 423 665 q 566 483 524 577 "},";":{"x_min":1,"x_max":298,"ha":401,"o":"m 165 585 l 191 707 l 298 707 l 272 585 l 165 585 m 1 -187 l 10 -134 q 63 -92 45 -122 q 92 0 82 -61 l 45 0 l 73 121 l 173 121 l 146 0 q 93 -138 125 -98 q 1 -187 60 -178 "},"6":{"x_min":52,"x_max":703,"ha":739,"o":"m 376 557 q 208 476 271 557 q 145 264 145 396 q 197 107 145 165 q 339 49 250 49 q 500 134 435 49 q 566 346 566 219 q 516 501 566 445 q 376 557 466 557 m 155 510 q 267 597 207 568 q 397 627 327 627 q 584 549 512 627 q 656 346 656 471 q 565 79 656 184 q 338 -26 474 -26 q 124 62 197 -26 q 52 321 52 151 q 166 789 52 606 q 460 973 281 973 q 636 909 570 973 q 703 739 703 845 l 703 724 l 623 724 q 577 852 621 806 q 456 898 534 898 q 271 795 351 898 q 155 510 192 693 "},"n":{"x_min":-12,"x_max":652,"ha":742,"o":"m -12 0 l 140 721 l 218 721 l 196 611 q 317 704 254 673 q 450 736 381 736 q 598 686 544 736 q 652 551 652 637 q 648 510 651 531 q 641 467 646 490 l 541 0 l 459 0 l 562 479 q 568 515 566 497 q 571 550 571 533 q 535 634 571 604 q 433 664 499 664 q 250 590 320 664 q 147 360 180 516 l 70 0 l -12 0 "},"¤":{"x_min":-29,"x_max":758,"ha":739,"o":"m -29 368 l -2 426 l 92 426 q 99 487 95 456 q 109 544 104 518 l 8 544 l 34 602 l 123 602 q 274 872 172 771 q 500 973 375 973 q 682 897 614 973 q 758 689 749 822 l 678 689 q 624 844 670 793 q 492 896 578 896 q 329 815 404 896 q 218 602 254 734 l 651 602 l 625 544 l 203 544 q 192 487 197 522 q 186 426 187 452 l 566 426 l 540 368 l 183 368 l 183 361 q 235 128 183 209 q 385 47 287 47 q 511 101 450 47 q 609 247 572 156 l 693 247 q 566 44 652 120 q 377 -31 479 -31 q 165 71 241 -31 q 90 357 90 173 l 90 368 l -29 368 "},"∂":{"x_min":92,"x_max":610,"ha":694,"o":"m 509 392 q 520 490 516 439 q 524 599 524 541 q 498 779 524 720 q 419 839 472 839 q 351 789 388 839 q 277 739 314 739 q 245 751 258 739 q 231 783 231 764 q 273 852 231 823 q 373 882 314 882 q 546 782 482 882 q 610 510 610 682 q 520 132 610 283 q 301 -18 431 -18 q 149 53 207 -18 q 92 243 92 124 q 164 444 92 360 q 339 528 237 528 q 446 494 405 528 q 509 392 488 461 m 483 311 q 451 440 483 396 q 358 485 419 485 q 228 400 278 485 q 179 176 179 315 q 211 55 179 97 q 304 13 243 13 q 432 97 381 13 q 483 311 483 182 "},"p":{"x_min":-74,"x_max":718,"ha":800,"o":"m 419 667 q 221 558 301 667 q 141 290 141 449 q 195 116 141 179 q 344 53 250 53 q 547 160 467 53 q 628 434 628 268 q 572 605 628 543 q 419 667 516 667 m -74 -288 l 141 721 l 222 721 l 201 628 q 310 709 253 683 q 435 736 368 736 q 641 651 564 736 q 718 426 718 567 q 614 111 718 239 q 356 -17 511 -17 q 199 24 264 -17 q 103 144 134 65 l 10 -288 l -74 -288 "},"‡":{"x_min":-5,"x_max":671,"ha":694,"o":"m 234 151 l -5 151 l 8 217 l 249 217 l 337 635 l 97 635 l 112 704 l 351 704 l 413 997 l 493 997 l 430 704 l 671 704 l 656 635 l 416 635 l 327 217 l 568 217 l 552 151 l 314 151 l 251 -144 l 172 -144 l 234 151 "},"√":{"x_min":36,"x_max":857,"ha":857,"o":"m 857 1102 l 857 1061 l 769 1061 l 365 -28 l 344 -28 l 120 587 l 46 560 l 36 594 l 191 648 l 380 133 l 740 1102 l 857 1102 "},"S":{"x_min":29,"x_max":759,"ha":823,"o":"m 29 295 l 115 295 q 179 113 115 176 q 365 50 243 50 q 539 105 476 50 q 603 259 603 161 q 563 379 603 333 q 412 466 523 425 q 182 594 234 534 q 131 752 131 653 q 213 952 131 876 q 433 1028 296 1028 q 671 950 588 1028 q 759 723 754 872 l 673 723 q 605 894 663 839 q 433 949 547 949 q 279 897 335 949 q 223 758 223 846 q 422 558 223 634 q 495 529 470 539 q 644 421 596 486 q 693 262 693 356 q 602 49 693 128 q 356 -29 511 -29 q 115 52 202 -29 q 29 279 29 134 l 29 295 "},"/":{"x_min":-25,"x_max":415,"ha":406,"o":"m 347 1025 l 415 1025 l 42 -116 l -25 -116 l 347 1025 "},"y":{"x_min":-72,"x_max":618,"ha":604,"o":"m -72 -281 l -58 -209 q -30 -211 -42 -210 q -9 -213 -19 -213 q 45 -196 23 -213 q 90 -138 67 -180 l 165 7 l 19 721 l 103 721 l 222 109 l 531 721 l 618 721 l 181 -139 q 95 -262 134 -233 q 0 -292 56 -292 q -32 -289 -15 -292 q -72 -281 -50 -286 "},"≈":{"x_min":121,"x_max":1038,"ha":1157,"o":"m 1038 328 q 900 253 966 278 q 775 229 835 229 q 575 276 703 229 q 383 324 446 324 q 267 300 327 324 q 121 215 207 276 l 121 278 q 257 352 192 328 q 383 377 322 377 q 583 330 455 377 q 775 283 712 283 q 891 307 831 283 q 1038 391 951 331 l 1038 328 m 1038 548 q 902 474 966 498 q 775 450 837 450 q 575 497 703 450 q 383 544 446 544 q 267 519 327 544 q 121 435 207 495 l 121 497 q 258 573 192 548 q 383 598 323 598 q 583 550 455 598 q 775 502 712 502 q 889 526 830 502 q 1038 611 949 550 l 1038 548 "},"g":{"x_min":-4,"x_max":747,"ha":800,"o":"m 393 667 q 189 558 271 667 q 107 292 107 449 q 161 117 107 181 q 313 54 216 54 q 515 160 437 54 q 594 432 594 266 q 540 604 594 542 q 393 667 487 667 m -4 -78 l 77 -78 q 130 -181 83 -146 q 261 -216 177 -216 q 442 -152 383 -216 q 530 81 501 -89 q 425 7 482 32 q 299 -17 367 -17 q 94 66 171 -17 q 18 287 18 149 q 123 606 18 476 q 382 736 229 736 q 539 693 476 736 q 633 568 602 651 l 664 720 l 747 720 l 601 28 q 487 -224 560 -158 q 263 -290 413 -290 q 72 -236 140 -290 q -4 -78 4 -182 "},"²":{"x_min":1,"x_max":455,"ha":488,"o":"m 1 378 q 54 504 9 452 q 200 610 99 557 q 253 638 218 620 q 350 699 324 674 q 382 744 370 718 q 394 798 394 770 q 361 883 394 852 q 272 915 329 915 q 174 879 212 915 q 123 776 136 844 l 66 776 q 133 911 80 863 q 269 960 186 960 q 404 916 353 960 q 455 803 455 873 q 246 577 455 683 l 244 576 q 117 496 154 529 q 73 428 80 463 l 394 428 l 382 378 l 1 378 "},"ë":{"x_min":18,"x_max":661,"ha":746,"o":"m 121 427 l 576 427 q 577 443 577 435 q 578 462 578 451 q 526 611 578 556 q 385 666 474 666 q 219 605 286 666 q 121 427 152 545 m 536 221 l 617 221 q 506 43 587 105 q 304 -18 425 -18 q 92 62 166 -18 q 18 290 18 142 q 119 611 18 485 q 378 737 221 737 q 587 657 513 737 q 661 433 661 578 q 656 366 661 415 q 655 350 655 355 l 108 350 q 105 306 106 326 q 104 269 104 286 q 159 112 104 169 q 311 55 214 55 q 451 97 393 55 q 536 221 509 140 m 471 867 l 493 977 l 592 977 l 567 867 l 471 867 m 251 867 l 274 977 l 372 977 l 348 867 l 251 867 "},"–":{"x_min":-39,"x_max":668,"ha":694,"o":"m -39 329 l -26 390 l 668 390 l 655 329 l -39 329 "},"ƒ":{"x_min":-14,"x_max":680,"ha":739,"o":"m 320 542 l 167 542 l 167 615 l 334 615 l 354 715 q 440 949 392 889 q 577 1010 489 1010 q 625 1003 600 1010 q 680 984 650 997 l 665 913 q 620 927 640 923 q 581 932 600 932 q 502 895 529 932 q 444 714 474 859 l 424 615 l 579 615 l 579 542 l 410 542 l 309 19 q 227 -209 277 -145 q 88 -273 177 -273 q 38 -267 63 -273 q -14 -249 13 -262 l 0 -176 q 47 -192 27 -187 q 84 -197 67 -197 q 165 -156 137 -197 q 220 22 194 -116 l 320 542 "},"J":{"x_min":-35,"x_max":645,"ha":650,"o":"m -26 297 l 64 297 q 57 243 59 266 q 55 201 55 220 q 91 91 55 128 q 198 54 127 54 q 328 99 284 54 q 399 266 373 144 l 552 999 l 645 999 l 485 234 q 388 35 456 96 q 196 -25 320 -25 q 25 29 86 -25 q -35 184 -35 84 q -33 230 -35 206 q -26 297 -31 254 "},"Ã":{"x_min":-79,"x_max":749,"ha":804,"o":"m 218 387 l 584 387 l 490 914 l 218 387 m -79 0 l 450 999 l 555 999 l 749 0 l 654 0 l 600 311 l 180 311 l 19 0 l -79 0 m 726 1276 q 671 1180 701 1208 q 596 1152 641 1152 q 578 1154 588 1152 q 550 1160 569 1155 l 486 1180 q 468 1184 474 1183 q 455 1185 462 1185 q 420 1172 435 1185 q 396 1134 405 1159 l 342 1134 q 396 1233 368 1206 q 468 1261 424 1261 q 487 1259 477 1261 q 508 1253 498 1256 l 569 1235 q 577 1233 572 1235 q 609 1227 599 1227 q 646 1239 631 1227 q 671 1276 662 1250 l 726 1276 "},"©":{"x_min":83,"x_max":1073,"ha":1157,"o":"m 733 622 q 678 708 719 677 q 578 739 638 739 q 445 672 493 739 q 398 487 398 606 q 446 306 398 372 q 578 240 495 240 q 684 275 640 240 q 742 370 729 311 l 811 370 q 737 234 803 287 q 574 182 671 182 q 388 265 457 182 q 319 491 319 349 q 391 713 319 630 q 582 797 464 797 q 733 748 672 797 q 804 622 795 699 l 733 622 m 1024 488 q 990 658 1024 578 q 895 802 957 739 q 749 900 830 867 q 577 934 668 934 q 406 900 487 934 q 264 805 326 867 q 166 657 200 739 q 132 488 132 576 q 165 319 132 400 q 263 174 199 238 q 408 77 327 111 q 577 43 489 43 q 747 77 665 43 q 895 176 830 112 q 991 318 958 238 q 1024 488 1024 397 m 577 984 q 768 946 678 984 q 929 838 859 909 q 1036 678 999 769 q 1073 488 1073 588 q 1036 298 1073 386 q 929 141 1000 210 q 766 31 857 69 q 577 -7 674 -7 q 389 30 479 -7 q 228 140 299 68 q 120 300 157 210 q 83 488 83 389 q 120 677 83 586 q 230 840 158 768 q 387 947 298 910 q 577 984 476 984 "},"˘":{"x_min":265,"x_max":640,"ha":694,"o":"m 266 1023 l 321 1023 l 321 1010 q 346 943 321 966 q 422 921 372 921 q 521 945 482 921 q 583 1023 559 970 l 640 1023 q 557 886 612 931 q 417 842 502 842 q 303 880 342 842 q 265 993 265 919 q 265 1011 265 1005 q 266 1023 265 1017 "},"≥":{"x_min":179,"x_max":978,"ha":1157,"o":"m 978 87 l 978 33 l 179 33 l 179 87 l 978 87 m 978 520 l 978 472 l 179 198 l 179 257 l 886 496 l 179 734 l 179 794 l 978 520 "},"D":{"x_min":8,"x_max":900,"ha":966,"o":"m 113 78 l 312 78 q 497 92 436 78 q 608 140 557 106 q 754 325 700 203 q 808 596 808 448 q 788 737 808 675 q 730 841 768 799 q 640 902 692 884 q 484 920 588 920 l 290 920 l 113 78 m 8 0 l 212 999 l 481 999 q 664 981 607 999 q 769 923 720 964 q 866 784 833 870 q 900 588 900 699 q 855 332 900 452 q 729 130 810 212 q 573 30 659 60 q 311 0 488 0 l 248 0 l 8 0 "},"ÿ":{"x_min":-72,"x_max":618,"ha":604,"o":"m -72 -281 l -58 -209 q -30 -211 -42 -210 q -9 -213 -19 -213 q 45 -196 23 -213 q 90 -138 67 -180 l 165 7 l 19 721 l 103 721 l 222 109 l 531 721 l 618 721 l 181 -139 q 95 -262 134 -233 q 0 -292 56 -292 q -32 -289 -15 -292 q -72 -281 -50 -286 m 437 867 l 459 977 l 558 977 l 533 867 l 437 867 m 217 867 l 240 977 l 338 977 l 314 867 l 217 867 "},"ł":{"x_min":-42.59375,"x_max":323.296875,"ha":282,"o":"m -8 0 l 84 441 l -10 385 l -42 440 l 103 524 l 204 999 l 286 999 l 194 568 l 290 623 l 323 568 l 176 483 l 73 0 l -8 0 "},"Ł":{"x_min":-41.375,"x_max":648,"ha":692,"o":"m 18 0 l 109 434 l -8 367 l -41 425 l 128 520 l 228 999 l 323 999 l 232 573 l 499 727 l 532 670 l 214 486 l 128 85 l 648 85 l 630 0 l 18 0 "},"$":{"x_min":24.671875,"x_max":694,"ha":739,"o":"m 219 -115 l 240 -17 q 80 68 136 0 q 24 248 24 136 q 25 260 24 252 q 26 275 26 269 l 107 275 q 107 262 107 270 q 106 250 106 254 q 143 122 106 171 q 254 58 180 74 l 334 455 q 178 558 227 498 q 130 703 130 618 q 209 895 130 821 q 414 970 288 970 l 432 970 l 451 1054 l 513 1054 l 495 963 q 642 887 590 949 q 694 726 694 825 l 694 712 l 613 712 l 613 724 q 579 839 613 797 q 481 891 546 881 l 407 517 q 584 405 535 464 q 634 250 634 346 q 547 51 634 127 q 321 -24 461 -24 l 301 -24 l 283 -115 l 219 -115 m 349 543 l 418 897 l 404 897 q 265 845 320 897 q 211 713 211 793 q 240 615 211 652 q 349 543 270 577 m 315 51 q 338 50 325 51 q 342 50 341 50 q 491 104 432 50 q 551 245 551 159 q 513 358 551 313 q 391 434 475 403 l 315 51 "},"w":{"x_min":28,"x_max":964,"ha":958,"o":"m 143 0 l 28 721 l 107 721 l 196 128 l 457 721 l 530 721 l 624 128 l 880 721 l 964 721 l 644 0 l 572 0 l 478 594 l 213 0 l 143 0 "},"\\":{"x_min":68,"x_max":307,"ha":406,"o":"m 238 -116 l 68 1025 l 135 1025 l 307 -116 l 238 -116 "},"∫":{"x_min":31,"x_max":612,"ha":643,"o":"m 272 391 q 330 888 272 729 q 512 1048 389 1048 q 584 1024 556 1048 q 612 963 612 1000 q 593 914 612 932 q 542 897 574 897 q 474 940 490 897 q 451 984 457 984 q 388 876 406 984 q 371 410 371 768 q 313 -93 371 65 q 131 -252 255 -252 q 59 -228 87 -252 q 31 -171 31 -205 q 50 -118 31 -138 q 102 -99 69 -99 q 139 -108 124 -99 q 167 -137 155 -117 q 175 -167 172 -146 q 192 -188 178 -188 q 254 -76 236 -188 q 272 391 272 35 "},"Ì":{"x_min":11,"x_max":371,"ha":325,"o":"m 11 0 l 219 999 l 314 999 l 104 0 l 11 0 m 371 1100 l 311 1100 l 119 1336 l 220 1336 l 371 1100 "},"Ç":{"x_min":64,"x_max":925,"ha":968,"o":"m 872 294 q 721 61 831 148 q 472 -26 611 -26 q 172 91 280 -26 q 64 419 64 209 q 105 655 64 540 q 221 860 146 770 q 380 982 289 940 q 576 1025 471 1025 q 825 939 733 1025 q 925 698 916 854 l 836 698 q 757 881 826 817 q 570 946 688 946 q 278 793 396 946 q 160 419 160 641 q 244 149 160 247 q 478 52 328 52 q 663 117 580 52 q 781 294 746 183 l 872 294 m 270 -282 l 288 -229 q 374 -249 341 -243 q 431 -256 407 -256 q 502 -236 477 -256 q 527 -180 527 -216 q 499 -134 527 -148 q 403 -121 471 -121 l 390 -121 l 431 0 l 475 0 l 450 -76 l 464 -76 q 568 -102 532 -76 q 604 -180 604 -129 q 561 -278 604 -243 q 442 -313 519 -313 q 366 -305 406 -313 q 270 -282 326 -298 "},"C":{"x_min":64,"x_max":925,"ha":968,"o":"m 872 294 q 721 61 831 148 q 472 -26 611 -26 q 172 91 280 -26 q 64 419 64 209 q 105 655 64 540 q 221 860 146 770 q 380 982 289 940 q 576 1025 471 1025 q 825 939 733 1025 q 925 698 916 854 l 836 698 q 757 881 826 817 q 570 946 688 946 q 278 793 396 946 q 160 419 160 641 q 244 149 160 247 q 478 52 328 52 q 663 117 580 52 q 781 294 746 183 l 872 294 "},"!":{"x_min":64,"x_max":370,"ha":433,"o":"m 133 235 l 201 636 l 279 999 l 370 999 l 293 636 l 191 235 l 133 235 m 64 0 l 90 121 l 191 121 l 167 0 l 64 0 "},"ç":{"x_min":20,"x_max":670,"ha":747,"o":"m 560 240 l 649 240 q 532 49 619 118 q 322 -20 445 -20 q 100 62 180 -20 q 20 291 20 144 q 123 609 20 482 q 386 736 227 736 q 594 669 520 736 q 670 481 668 602 l 591 481 q 534 617 588 567 q 389 668 480 668 q 187 559 269 668 q 106 292 106 450 q 164 117 106 180 q 325 54 222 54 q 472 104 408 54 q 560 240 535 155 m 112 -282 l 130 -229 q 216 -249 183 -243 q 273 -256 249 -256 q 344 -236 319 -256 q 369 -180 369 -216 q 341 -134 369 -148 q 245 -121 313 -121 l 232 -121 l 273 0 l 317 0 l 292 -76 l 306 -76 q 410 -102 374 -76 q 446 -180 446 -129 q 403 -278 446 -243 q 284 -313 361 -313 q 208 -305 248 -313 q 112 -282 168 -298 "},"È":{"x_min":8,"x_max":786,"ha":787,"o":"m 8 0 l 216 999 l 786 999 l 766 917 l 291 917 l 216 559 l 683 559 l 666 478 l 198 478 l 115 78 l 653 78 l 638 0 l 8 0 m 611 1100 l 551 1100 l 359 1336 l 460 1336 l 611 1100 "},"X":{"x_min":-83,"x_max":749,"ha":701,"o":"m -83 0 l 298 523 l 61 999 l 160 999 l 350 598 l 640 999 l 749 999 l 390 514 l 649 0 l 552 0 l 335 437 l 26 0 l -83 0 "},"ô":{"x_min":18,"x_max":681,"ha":764,"o":"m 382 671 q 184 561 263 671 q 105 289 105 452 q 159 113 105 175 q 312 52 213 52 q 512 162 431 52 q 593 433 593 273 q 539 611 593 551 q 382 671 486 671 m 18 288 q 123 611 18 481 q 388 742 229 742 q 604 660 528 742 q 681 429 681 578 q 577 105 681 231 q 311 -21 474 -21 q 95 61 172 -21 q 18 288 18 143 m 605 814 l 550 814 l 451 982 l 293 814 l 231 814 l 411 1050 l 501 1050 l 605 814 "},"đ":{"x_min":20,"x_max":887,"ha":798,"o":"m 384 667 q 185 559 265 667 q 106 290 106 451 q 160 117 106 179 q 311 55 214 55 q 514 160 436 55 q 591 438 591 266 q 537 607 591 547 q 384 667 483 667 m 515 0 l 533 89 q 427 7 484 34 q 301 -20 370 -20 q 96 64 172 -20 q 20 290 20 148 q 123 607 20 478 q 379 736 226 736 q 533 696 473 736 q 629 572 593 657 l 686 838 l 447 838 l 461 899 l 699 899 l 720 999 l 803 999 l 782 899 l 887 899 l 874 838 l 770 838 l 590 0 l 515 0 "},"}":{"x_min":120,"x_max":574,"ha":694,"o":"m 369 746 l 369 583 q 408 432 369 476 q 543 388 447 388 q 558 389 548 388 q 574 390 567 390 l 574 330 q 558 330 567 330 q 543 331 548 331 q 408 287 447 331 q 369 137 369 244 l 369 -25 q 322 -229 369 -178 q 149 -280 276 -280 l 120 -280 l 120 -220 l 146 -220 q 268 -185 237 -220 q 300 -42 300 -151 l 300 121 q 329 288 300 239 q 432 360 358 338 q 329 431 358 381 q 300 598 300 480 l 300 762 q 268 907 300 872 q 145 942 236 942 l 120 942 l 120 1002 l 149 1002 q 322 951 276 1002 q 369 746 369 900 "},"â":{"x_min":-18,"x_max":616.71875,"ha":715,"o":"m 450 82 q 332 4 391 29 q 204 -20 273 -20 q 43 35 104 -20 q -18 181 -18 91 q 9 290 -18 241 q 89 370 36 339 q 313 417 148 406 q 326 419 321 418 q 351 421 334 419 q 535 541 535 435 q 491 634 535 603 q 361 666 448 666 q 210 630 262 666 q 146 518 157 594 l 69 518 q 161 680 85 627 q 373 734 237 734 q 550 685 487 734 q 614 547 614 636 q 611 508 614 530 q 603 461 608 486 l 532 131 q 529 114 530 123 q 528 95 528 106 q 537 66 528 76 q 564 57 546 57 q 590 59 577 57 q 616 66 603 61 l 603 0 q 577 -9 591 -6 q 546 -12 563 -12 q 474 11 498 -12 q 450 82 450 34 m 501 370 q 348 344 449 350 q 208 331 248 339 q 105 280 140 317 q 71 184 71 243 q 111 88 71 124 q 218 53 151 53 q 409 131 338 53 q 501 370 480 210 m 583 814 l 528 814 l 429 982 l 271 814 l 209 814 l 389 1050 l 479 1050 l 583 814 "},"ø":{"x_min":-1.359375,"x_max":695.5625,"ha":764,"o":"m 133 153 l 534 614 q 468 658 502 645 q 387 672 434 672 q 186 561 265 672 q 107 283 107 451 q 113 215 107 247 q 133 153 119 184 m 165 108 q 229 64 194 78 q 309 51 265 51 q 514 161 433 51 q 595 439 595 271 q 588 506 595 475 q 567 568 581 537 l 165 108 m -1 0 l 76 88 q 31 186 45 137 q 18 289 18 234 q 124 611 18 481 q 393 742 231 742 q 501 726 454 742 q 588 676 548 710 l 653 751 l 695 716 l 625 633 q 668 545 655 591 q 682 441 682 500 q 580 106 682 233 q 313 -20 479 -20 q 201 -4 249 -20 q 112 46 154 11 l 41 -34 l -1 0 "},"Ä":{"x_min":-79,"x_max":749,"ha":804,"o":"m 218 387 l 584 387 l 490 914 l 218 387 m -79 0 l 450 999 l 555 999 l 749 0 l 654 0 l 600 311 l 180 311 l 19 0 l -79 0 m 584 1153 l 606 1263 l 705 1263 l 680 1153 l 584 1153 m 364 1153 l 387 1263 l 485 1263 l 461 1153 l 364 1153 "},"‰":{"x_min":52,"x_max":1641,"ha":1691,"o":"m 1262 230 q 1305 124 1262 167 q 1410 81 1348 81 q 1516 124 1472 81 q 1560 230 1560 168 q 1516 335 1560 292 q 1410 379 1473 379 q 1305 335 1348 379 q 1262 230 1262 292 m 1181 230 q 1247 393 1181 327 q 1410 460 1313 460 q 1574 393 1507 460 q 1641 230 1641 327 q 1573 67 1641 134 q 1410 0 1505 0 q 1247 66 1313 0 q 1181 230 1181 133 m 695 230 q 738 124 695 168 q 844 81 782 81 q 949 124 906 81 q 993 230 993 167 q 950 336 993 293 q 844 379 907 379 q 738 335 782 379 q 695 230 695 292 m 614 230 q 680 393 614 326 q 844 460 747 460 q 1007 393 941 460 q 1074 230 1074 327 q 1007 67 1074 134 q 844 0 940 0 q 681 67 748 0 q 614 230 614 134 m 216 -27 l 839 970 l 909 970 l 288 -27 l 216 -27 m 133 712 q 176 607 133 650 q 282 564 219 564 q 387 606 344 564 q 431 712 431 649 q 387 818 431 775 q 282 862 344 862 q 176 818 220 862 q 133 712 133 774 m 52 713 q 118 876 52 810 q 281 943 184 943 q 445 876 378 943 q 512 713 512 810 q 444 550 512 617 q 281 483 376 483 q 118 549 184 483 q 52 713 52 616 "},"N":{"x_min":8,"x_max":953,"ha":961,"o":"m 8 0 l 219 999 l 323 999 l 678 109 l 862 999 l 953 999 l 744 0 l 632 0 l 283 874 l 104 0 l 8 0 "},"—":{"x_min":-39,"x_max":1362,"ha":1389,"o":"m 1362 390 l 1349 329 l -39 329 l -26 390 l 1362 390 "},"2":{"x_min":3,"x_max":691,"ha":739,"o":"m 3 0 q 82 209 15 121 q 304 387 150 296 q 375 427 328 401 q 532 534 490 489 q 580 611 563 567 q 598 699 598 654 q 549 842 598 790 q 413 894 500 894 q 264 835 322 894 q 187 662 207 776 l 102 662 q 204 889 123 808 q 410 971 285 971 q 613 898 536 971 q 691 707 691 825 q 379 334 691 511 l 372 329 q 178 196 232 249 q 112 83 124 142 l 599 83 l 581 0 l 3 0 "},"ü":{"x_min":29,"x_max":693,"ha":742,"o":"m 693 721 l 540 0 l 462 0 l 484 107 q 362 14 425 45 q 230 -16 299 -16 q 82 32 136 -16 q 29 167 29 81 q 31 208 29 187 q 38 251 33 229 l 139 721 l 221 721 l 119 239 q 112 200 114 218 q 110 169 110 183 q 145 84 110 114 q 247 55 181 55 q 429 128 360 55 q 533 357 499 202 l 610 721 l 693 721 m 506 867 l 528 977 l 627 977 l 602 867 l 506 867 m 286 867 l 309 977 l 407 977 l 383 867 l 286 867 "},"":{"x_min":17,"x_max":635,"ha":631,"o":"m 17 0 l 155 656 l 42 656 l 58 721 l 169 721 l 193 830 q 250 971 216 935 q 350 1008 285 1008 q 386 1005 366 1008 q 431 996 405 1002 l 416 926 q 382 932 397 930 q 358 935 368 935 q 305 915 323 935 q 273 829 288 895 l 252 721 l 375 721 l 363 656 l 237 656 l 98 0 l 17 0 m 341 0 l 553 999 l 635 999 l 424 0 l 341 0 "},"Ó":{"x_min":62,"x_max":978,"ha":1040,"o":"m 573 947 q 276 793 397 947 q 156 412 156 639 q 237 146 156 242 q 463 50 319 50 q 762 205 643 50 q 882 597 882 360 q 803 857 882 768 q 573 947 725 947 m 456 -31 q 166 86 270 -31 q 62 412 62 203 q 106 661 62 539 q 230 869 151 783 q 389 987 301 947 q 577 1028 476 1028 q 874 915 770 1028 q 978 595 978 803 q 935 344 978 465 q 816 133 893 223 q 656 11 750 54 q 456 -31 562 -31 m 592 1100 l 529 1100 l 694 1336 l 795 1336 l 592 1100 "},"˜":{"x_min":240,"x_max":624,"ha":694,"o":"m 624 990 q 569 894 599 922 q 494 866 539 866 q 476 868 486 866 q 448 874 467 869 l 384 894 q 366 898 372 897 q 353 899 360 899 q 318 886 333 899 q 294 848 303 873 l 240 848 q 294 947 266 920 q 366 975 322 975 q 385 973 375 975 q 406 967 396 970 l 467 949 q 475 947 470 949 q 507 941 497 941 q 544 953 529 941 q 569 990 560 964 l 624 990 "},"ˇ":{"x_min":261,"x_max":635,"ha":694,"o":"m 261 1050 l 315 1050 l 413 881 l 572 1050 l 635 1050 l 454 814 l 364 814 l 261 1050 "},"Ÿ":{"x_min":36,"x_max":739,"ha":668,"o":"m 194 0 l 287 445 l 36 999 l 127 999 l 339 523 l 637 999 l 739 999 l 370 422 l 286 0 l 194 0 m 529 1153 l 551 1263 l 650 1263 l 625 1153 l 529 1153 m 309 1153 l 332 1263 l 430 1263 l 406 1153 l 309 1153 "},"€":{"x_min":-29,"x_max":758,"ha":739,"o":"m -29 368 l -2 426 l 92 426 q 99 487 95 456 q 109 544 104 518 l 8 544 l 34 602 l 123 602 q 274 872 172 771 q 500 973 375 973 q 682 897 614 973 q 758 689 749 822 l 678 689 q 624 844 670 793 q 492 896 578 896 q 329 815 404 896 q 218 602 254 734 l 651 602 l 625 544 l 203 544 q 192 487 197 522 q 186 426 187 452 l 566 426 l 540 368 l 183 368 l 183 361 q 235 128 183 209 q 385 47 287 47 q 511 101 450 47 q 609 247 572 156 l 693 247 q 566 44 652 120 q 377 -31 479 -31 q 165 71 241 -31 q 90 357 90 173 l 90 368 l -29 368 "},"ß":{"x_min":-11,"x_max":669,"ha":721,"o":"m -11 0 l 136 728 q 235 934 164 865 q 420 1004 307 1004 q 599 941 530 1004 q 669 781 669 879 q 623 640 669 698 q 490 554 577 581 q 592 469 560 519 q 624 340 624 418 q 531 83 624 185 q 295 -18 438 -18 q 258 -14 279 -18 q 209 -4 237 -11 l 226 67 q 258 59 242 62 q 293 57 275 57 q 468 138 398 57 q 538 339 538 219 q 488 473 538 426 q 346 520 438 520 q 325 519 332 520 q 312 518 318 519 l 326 586 q 340 585 333 585 q 359 585 347 585 q 525 636 466 585 q 584 777 584 687 q 541 888 584 846 q 428 931 498 931 q 286 875 338 931 q 209 695 234 820 l 67 0 l -11 0 "},"s":{"x_min":-9,"x_max":592,"ha":671,"o":"m 74 225 q 134 92 82 136 q 282 49 185 49 q 418 87 369 49 q 468 194 468 126 q 289 338 468 271 l 273 345 q 120 431 160 388 q 80 541 80 474 q 148 684 80 630 q 332 739 217 739 q 520 683 454 739 q 592 519 585 627 l 515 519 q 460 634 507 597 q 320 672 412 672 q 206 638 250 672 q 162 551 162 604 q 190 480 162 508 q 315 413 218 452 q 509 308 466 354 q 553 193 553 262 q 476 38 553 98 q 275 -21 399 -21 q 69 42 142 -21 q -9 225 -2 105 l 74 225 "},"?":{"x_min":66,"x_max":660,"ha":682,"o":"m 219 242 q 261 407 229 343 q 361 516 294 470 q 420 554 380 530 q 573 763 573 648 q 517 895 573 846 q 367 944 461 944 q 212 883 270 944 q 151 719 155 823 l 66 719 q 148 938 68 859 q 368 1017 228 1017 q 581 949 503 1017 q 660 765 660 881 q 620 617 660 678 q 444 472 581 556 q 337 378 365 425 q 299 242 310 330 l 219 242 m 168 0 l 189 119 l 289 119 l 265 0 l 168 0 "},"c":{"x_min":20,"x_max":670,"ha":747,"o":"m 560 240 l 649 240 q 532 49 619 118 q 322 -20 445 -20 q 100 62 180 -20 q 20 291 20 144 q 123 609 20 482 q 386 736 227 736 q 594 669 520 736 q 670 481 668 602 l 591 481 q 534 617 588 567 q 389 668 480 668 q 187 559 269 668 q 106 292 106 450 q 164 117 106 180 q 325 54 222 54 q 472 104 408 54 q 560 240 535 155 "},"¶":{"x_min":61,"x_max":631,"ha":694,"o":"m 631 960 l 544 960 l 544 0 l 497 0 l 497 960 l 367 960 l 367 0 l 320 0 l 320 530 q 131 599 201 535 q 61 766 61 663 q 134 937 61 872 q 329 1003 208 1003 l 631 1003 l 631 960 "},"•":{"x_min":208,"x_max":609,"ha":819,"o":"m 208 516 q 266 657 208 599 q 409 716 325 716 q 550 657 491 716 q 609 516 609 598 q 549 374 609 433 q 407 315 490 315 q 266 373 324 315 q 208 516 208 432 "},"(":{"x_min":90,"x_max":521,"ha":439,"o":"m 198 -282 q 116 -5 142 -132 q 90 234 90 120 q 178 625 90 432 q 446 1014 267 818 l 521 1014 q 258 600 339 797 q 177 181 177 402 q 196 -30 177 81 q 257 -282 215 -142 l 198 -282 "},"◊":{"x_min":4,"x_max":682,"ha":686,"o":"m 343 955 l 81 401 l 343 -158 l 604 401 l 343 955 m 343 1121 l 682 401 l 343 -324 l 4 401 l 343 1121 "},"­":{"x_min":22,"x_max":375,"ha":454,"o":"m 22 319 l 36 400 l 375 400 l 358 319 l 22 319 "},":":{"x_min":56,"x_max":309,"ha":401,"o":"m 178 584 l 202 707 l 309 707 l 283 584 l 178 584 m 56 0 l 81 123 l 186 123 l 161 0 l 56 0 "},"Û":{"x_min":72,"x_max":950,"ha":960,"o":"m 216 999 l 308 999 l 183 398 q 171 326 175 359 q 167 266 167 294 q 232 111 167 170 q 405 53 297 53 q 614 123 539 53 q 723 354 689 194 l 859 999 l 950 999 l 823 381 q 681 61 775 151 q 408 -28 587 -28 q 163 48 254 -28 q 72 250 72 125 q 92 413 72 314 q 94 422 93 419 l 216 999 m 794 1100 l 739 1100 l 640 1268 l 482 1100 l 420 1100 l 600 1336 l 690 1336 l 794 1100 "},"V":{"x_min":61,"x_max":804,"ha":729,"o":"m 230 0 l 61 999 l 147 999 l 295 118 l 709 999 l 804 999 l 327 0 l 230 0 "}," ":{"x_min":0,"x_max":0,"ha":739},"@":{"x_min":82,"x_max":1307,"ha":1389,"o":"m 884 560 l 925 647 l 979 647 l 886 272 q 876 228 879 247 q 872 198 872 209 q 893 152 872 168 q 951 136 913 136 q 1019 149 984 136 q 1089 187 1055 162 q 1199 328 1158 238 q 1241 519 1241 418 q 1105 818 1241 705 q 749 931 970 931 q 538 898 635 931 q 363 800 441 865 q 205 599 258 714 q 153 345 153 484 q 303 -8 153 123 q 704 -141 453 -141 q 924 -106 813 -141 q 1126 -9 1034 -72 l 1146 -40 q 937 -152 1047 -115 q 706 -190 827 -190 q 474 -158 580 -190 q 286 -64 368 -126 q 132 116 183 13 q 82 353 82 220 q 116 561 82 463 q 216 741 150 660 q 450 921 313 860 q 755 983 587 983 q 962 953 864 983 q 1130 868 1060 923 q 1262 715 1217 802 q 1307 526 1307 628 q 1264 317 1307 412 q 1141 160 1221 223 q 1042 104 1096 123 q 934 85 989 85 q 837 109 870 85 q 804 183 804 134 q 806 206 804 191 q 807 209 807 208 q 722 117 774 150 q 609 85 670 85 q 451 141 505 85 q 397 306 397 197 q 488 568 397 461 q 710 676 579 676 q 818 646 774 676 q 884 560 862 617 m 827 315 l 869 488 q 814 590 854 555 q 711 626 774 626 q 538 532 608 626 q 468 301 468 438 q 507 179 468 223 q 615 135 546 135 q 748 184 690 135 q 827 315 805 233 "},"¾":{"x_min":18,"x_max":1122,"ha":1162,"o":"m 931 0 l 965 138 l 708 138 l 716 178 l 1062 528 l 1113 528 l 1031 175 l 1122 175 l 1111 138 l 1020 138 l 986 0 l 931 0 m 773 175 l 978 175 l 1042 448 l 773 175 m 233 -28 l 856 971 l 927 971 l 304 -28 l 233 -28 m 72 558 q 110 471 74 503 q 205 440 146 440 q 308 477 268 440 q 349 572 349 514 q 313 646 349 621 q 206 671 277 671 l 179 671 l 190 713 l 209 712 l 222 712 q 337 740 297 712 q 377 822 377 769 q 344 890 377 864 q 261 917 312 917 q 175 889 209 917 q 128 810 140 862 l 76 810 q 137 919 88 881 q 263 957 185 957 q 383 920 337 957 q 429 825 429 883 q 402 739 429 775 q 325 689 375 704 q 384 640 365 670 q 403 567 403 610 q 349 444 403 489 q 206 399 296 399 q 69 441 119 399 q 18 558 18 484 l 72 558 "},"i":{"x_min":-8,"x_max":291,"ha":282,"o":"m 172 885 l 195 999 l 291 999 l 267 885 l 172 885 m -8 0 l 145 721 l 227 721 l 74 0 l -8 0 "},"≤":{"x_min":179,"x_max":978,"ha":1157,"o":"m 978 87 l 978 33 l 179 33 l 179 87 l 978 87 m 978 734 l 270 496 l 978 257 l 978 198 l 179 472 l 179 520 l 978 794 l 978 734 "},"m":{"x_min":-11,"x_max":1058,"ha":1146,"o":"m -11 0 l 140 721 l 221 721 l 195 612 q 303 705 244 674 q 431 737 362 737 q 555 706 509 737 q 618 615 602 676 q 727 707 667 677 q 867 737 788 737 q 1007 690 957 737 q 1058 562 1058 644 q 1055 528 1058 547 q 1047 487 1052 509 l 945 0 l 863 0 l 963 484 q 972 531 969 514 q 975 558 975 547 q 942 639 975 610 q 850 668 909 668 q 685 599 747 668 q 589 379 623 531 l 507 0 l 423 0 l 532 506 q 538 536 537 521 q 540 566 540 550 q 509 641 540 615 q 421 668 478 668 q 249 589 319 668 q 147 359 179 510 l 69 0 l -11 0 "},"ž":{"x_min":-62,"x_max":596,"ha":615,"o":"m -62 0 l -44 86 l 473 648 l 50 648 l 65 721 l 586 721 l 567 633 l 51 72 l 510 72 l 494 0 l -62 0 m 222 1050 l 276 1050 l 374 881 l 533 1050 l 596 1050 l 415 814 l 325 814 l 222 1050 "},"á":{"x_min":-18,"x_max":616.71875,"ha":715,"o":"m 450 82 q 332 4 391 29 q 204 -20 273 -20 q 43 35 104 -20 q -18 181 -18 91 q 9 290 -18 241 q 89 370 36 339 q 313 417 148 406 q 326 419 321 418 q 351 421 334 419 q 535 541 535 435 q 491 634 535 603 q 361 666 448 666 q 210 630 262 666 q 146 518 157 594 l 69 518 q 161 680 85 627 q 373 734 237 734 q 550 685 487 734 q 614 547 614 636 q 611 508 614 530 q 603 461 608 486 l 532 131 q 529 114 530 123 q 528 95 528 106 q 537 66 528 76 q 564 57 546 57 q 590 59 577 57 q 616 66 603 61 l 603 0 q 577 -9 591 -6 q 546 -12 563 -12 q 474 11 498 -12 q 450 82 450 34 m 501 370 q 348 344 449 350 q 208 331 248 339 q 105 280 140 317 q 71 184 71 243 q 111 88 71 124 q 218 53 151 53 q 409 131 338 53 q 501 370 480 210 m 374 814 l 311 814 l 476 1050 l 577 1050 l 374 814 "},"×":{"x_min":210,"x_max":949,"ha":1157,"o":"m 579 453 l 909 784 l 949 745 l 618 414 l 949 83 l 909 45 l 579 375 l 249 45 l 210 83 l 540 414 l 210 745 l 249 784 l 579 453 "},"İ":{"x_min":11,"x_max":371,"ha":325,"o":"m 11 0 l 219 999 l 314 999 l 104 0 l 11 0 m 245 1150 l 270 1267 l 371 1267 l 345 1150 l 245 1150 "},"K":{"x_min":11,"x_max":887,"ha":819,"o":"m 11 0 l 222 999 l 317 999 l 211 498 l 762 999 l 887 999 l 432 590 l 770 0 l 668 0 l 365 529 l 182 365 l 104 0 l 11 0 "},"7":{"x_min":89,"x_max":721,"ha":739,"o":"m 131 0 q 318 436 200 222 q 609 868 436 649 l 89 868 l 108 943 l 721 943 l 711 872 q 415 435 535 650 q 225 0 295 219 l 131 0 "},"¨":{"x_min":262,"x_max":603,"ha":694,"o":"m 482 867 l 504 977 l 603 977 l 578 867 l 482 867 m 262 867 l 285 977 l 383 977 l 359 867 l 262 867 "},"Y":{"x_min":36,"x_max":739,"ha":668,"o":"m 194 0 l 287 445 l 36 999 l 127 999 l 339 523 l 637 999 l 739 999 l 370 422 l 286 0 l 194 0 "},"E":{"x_min":8,"x_max":786,"ha":787,"o":"m 8 0 l 216 999 l 786 999 l 766 917 l 291 917 l 216 559 l 683 559 l 666 478 l 198 478 l 115 78 l 653 78 l 638 0 l 8 0 "},"Ô":{"x_min":62,"x_max":978,"ha":1040,"o":"m 573 947 q 276 793 397 947 q 156 412 156 639 q 237 146 156 242 q 463 50 319 50 q 762 205 643 50 q 882 597 882 360 q 803 857 882 768 q 573 947 725 947 m 456 -31 q 166 86 270 -31 q 62 412 62 203 q 106 661 62 539 q 230 869 151 783 q 389 987 301 947 q 577 1028 476 1028 q 874 915 770 1028 q 978 595 978 803 q 935 344 978 465 q 816 133 893 223 q 656 11 750 54 q 456 -31 562 -31 m 801 1100 l 746 1100 l 647 1268 l 489 1100 l 427 1100 l 607 1336 l 697 1336 l 801 1100 "},"Ï":{"x_min":11,"x_max":478,"ha":325,"o":"m 11 0 l 219 999 l 314 999 l 104 0 l 11 0 m 357 1153 l 379 1263 l 478 1263 l 453 1153 l 357 1153 m 137 1153 l 160 1263 l 258 1263 l 234 1153 l 137 1153 "},"‹":{"x_min":7,"x_max":264,"ha":317,"o":"m 180 164 l 7 311 l 26 407 l 264 559 l 242 460 l 68 351 l 197 241 l 180 164 "},"±":{"x_min":172,"x_max":984,"ha":1157,"o":"m 984 96 l 984 40 l 172 40 l 172 96 l 984 96 m 605 787 l 605 547 l 984 547 l 984 493 l 605 493 l 605 254 l 551 254 l 551 493 l 172 493 l 172 547 l 551 547 l 551 787 l 605 787 "},"ì":{"x_min":-8,"x_max":291,"ha":282,"o":"m -8 0 l 144 721 l 227 721 l 74 0 l -8 0 m 291 814 l 231 814 l 39 1050 l 140 1050 l 291 814 "},"|":{"x_min":317,"x_max":378,"ha":694,"o":"m 378 1061 l 378 -328 l 317 -328 l 317 1061 l 378 1061 "},"§":{"x_min":38,"x_max":607,"ha":694,"o":"m 399 219 q 489 278 459 243 q 519 360 519 313 q 385 543 519 422 q 260 661 306 614 q 177 612 205 644 q 149 534 149 580 q 287 330 149 459 q 399 219 359 262 m 39 98 l 117 98 l 117 76 q 147 -38 117 -3 q 246 -74 178 -74 q 348 -39 310 -74 q 387 52 387 -4 q 368 126 387 92 q 298 208 349 160 l 167 328 q 90 424 115 378 q 66 520 66 471 q 106 638 66 588 q 224 715 147 688 q 201 766 208 741 q 194 817 194 792 q 252 956 194 902 q 406 1010 311 1010 q 553 954 499 1010 q 607 802 607 898 q 606 789 607 798 q 605 776 605 780 l 530 776 l 530 792 q 497 899 530 861 q 405 937 464 937 q 311 902 348 937 q 275 817 275 868 q 292 750 275 782 q 351 684 310 719 l 506 547 q 576 462 553 505 q 600 373 600 419 q 559 245 600 298 q 438 166 518 193 q 461 111 454 138 q 469 56 469 84 q 408 -91 469 -37 q 243 -146 348 -146 q 89 -91 141 -146 q 38 69 38 -37 q 38 83 38 74 q 39 98 39 93 "},"q":{"x_min":21,"x_max":750,"ha":800,"o":"m 391 668 q 188 560 269 668 q 107 293 107 452 q 160 118 107 180 q 312 56 214 56 q 516 159 438 56 q 594 432 594 263 q 542 607 594 546 q 391 668 489 668 m 452 -288 l 532 87 q 425 7 480 33 q 307 -18 370 -18 q 97 66 174 -18 q 21 294 21 150 q 124 608 21 480 q 380 737 227 737 q 538 698 476 737 q 637 575 599 659 l 669 722 l 750 722 l 534 -288 l 452 -288 "},"b":{"x_min":-8,"x_max":716,"ha":800,"o":"m 421 666 q 222 556 303 666 q 141 289 141 447 q 197 118 141 182 q 346 54 253 54 q 549 159 470 54 q 629 430 629 264 q 574 603 629 541 q 421 666 519 666 m -8 0 l 204 999 l 286 999 l 207 627 q 312 710 258 684 q 433 737 367 737 q 639 652 562 737 q 716 427 716 568 q 613 110 716 237 q 355 -17 511 -17 q 198 24 260 -17 q 104 150 135 66 l 72 0 l -8 0 "},"®":{"x_min":83,"x_max":1073,"ha":1157,"o":"m 577 730 l 463 730 l 463 518 l 577 518 q 712 542 675 518 q 750 627 750 566 q 708 705 750 680 q 577 730 666 730 m 592 783 q 771 744 714 783 q 829 625 829 706 q 791 524 829 564 q 691 475 753 483 l 820 209 l 731 209 l 607 465 l 463 465 l 463 209 l 385 209 l 385 783 l 592 783 m 1024 488 q 990 658 1024 578 q 895 802 957 739 q 749 900 830 867 q 577 934 668 934 q 406 900 487 934 q 264 805 326 867 q 166 657 200 739 q 132 488 132 576 q 165 319 132 400 q 263 174 199 238 q 408 77 327 111 q 577 43 489 43 q 747 77 665 43 q 895 176 830 112 q 991 318 958 238 q 1024 488 1024 397 m 577 984 q 768 946 678 984 q 929 838 859 909 q 1036 678 999 769 q 1073 488 1073 588 q 1036 298 1073 386 q 929 141 1000 210 q 766 31 857 69 q 577 -7 674 -7 q 389 30 479 -7 q 228 140 299 68 q 120 300 157 210 q 83 488 83 389 q 120 677 83 586 q 230 840 158 768 q 387 947 298 910 q 577 984 476 984 "},"L":{"x_min":11,"x_max":643,"ha":685,"o":"m 11 0 l 223 999 l 316 999 l 123 85 l 643 85 l 625 0 l 11 0 "}," ":{"x_min":0,"x_max":0,"ha":370},"∑":{"x_min":7,"x_max":850,"ha":875,"o":"m 30 999 l 850 999 l 850 916 l 146 916 l 635 382 l 119 -184 l 850 -184 l 850 -266 l 7 -266 l 7 -179 l 517 382 l 30 916 l 30 999 "},"À":{"x_min":-79,"x_max":749,"ha":804,"o":"m 218 387 l 584 387 l 490 914 l 218 387 m -79 0 l 450 999 l 555 999 l 749 0 l 654 0 l 600 311 l 180 311 l 19 0 l -79 0 m 598 1100 l 538 1100 l 346 1336 l 447 1336 l 598 1100 "},"+":{"x_min":172,"x_max":984,"ha":1157,"o":"m 605 829 l 605 442 l 984 442 l 984 386 l 605 386 l 605 0 l 551 0 l 551 386 l 172 386 l 172 442 l 551 442 l 551 829 l 605 829 "},"½":{"x_min":102,"x_max":1132,"ha":1164,"o":"m 699 0 q 748 116 705 67 q 889 216 791 166 q 934 239 904 225 q 1032 299 1006 273 q 1063 342 1052 318 q 1074 391 1074 366 q 1043 471 1074 442 q 958 501 1012 501 q 863 468 899 501 q 815 371 827 435 l 761 371 q 825 497 774 452 q 955 543 876 543 q 1083 502 1035 543 q 1132 397 1132 462 q 935 186 1132 286 l 931 184 q 810 110 845 141 q 768 47 775 80 l 1075 47 l 1063 0 l 699 0 m 233 -28 l 856 971 l 927 971 l 304 -28 l 233 -28 m 166 415 l 273 860 q 183 823 225 836 q 102 805 142 809 l 108 841 q 230 887 185 860 q 307 958 276 915 l 350 958 l 220 415 l 166 415 "},"Ë":{"x_min":8,"x_max":786,"ha":787,"o":"m 8 0 l 216 999 l 786 999 l 766 917 l 291 917 l 216 559 l 683 559 l 666 478 l 198 478 l 115 78 l 653 78 l 638 0 l 8 0 m 597 1153 l 619 1263 l 718 1263 l 693 1153 l 597 1153 m 377 1153 l 400 1263 l 498 1263 l 474 1153 l 377 1153 "},"'":{"x_min":68,"x_max":126,"ha":193,"o":"m 126 973 l 126 598 l 68 598 l 68 973 l 126 973 "},"Š":{"x_min":29,"x_max":760,"ha":823,"o":"m 29 295 l 115 295 q 179 113 115 176 q 365 50 243 50 q 539 105 476 50 q 603 259 603 161 q 563 379 603 333 q 412 466 523 425 q 182 594 234 534 q 131 752 131 653 q 213 952 131 876 q 433 1028 296 1028 q 671 950 588 1028 q 759 723 754 872 l 673 723 q 605 894 663 839 q 433 949 547 949 q 279 897 335 949 q 223 758 223 846 q 422 558 223 634 q 495 529 470 539 q 644 421 596 486 q 693 262 693 356 q 602 49 693 128 q 356 -29 511 -29 q 115 52 202 -29 q 29 279 29 134 l 29 295 m 386 1336 l 440 1336 l 538 1167 l 697 1336 l 760 1336 l 579 1100 l 489 1100 l 386 1336 "},"˛":{"x_min":100,"x_max":300,"ha":694,"o":"m 265 0 q 191 -82 216 -42 q 167 -159 167 -123 q 183 -204 167 -190 q 240 -218 200 -218 l 300 -218 l 285 -289 l 243 -289 q 134 -262 169 -289 q 100 -179 100 -235 q 131 -92 100 -137 q 224 0 163 -46 l 265 0 "},"ð":{"x_min":18,"x_max":682,"ha":764,"o":"m 374 657 q 183 550 259 657 q 107 286 107 444 q 161 112 107 174 q 313 51 215 51 q 509 157 430 51 q 588 421 588 264 q 534 597 588 537 q 374 657 480 657 m 549 667 q 501 759 531 718 q 424 838 470 801 l 259 762 l 237 808 l 380 874 q 309 914 347 895 q 212 956 272 933 l 239 1018 q 346 975 293 1001 q 456 915 399 950 l 639 1003 l 660 955 l 500 880 q 636 689 591 796 q 682 450 682 582 q 581 109 682 236 q 312 -18 480 -18 q 95 62 172 -18 q 18 287 18 142 q 122 595 18 470 q 378 721 226 721 q 463 708 421 721 q 549 667 505 695 "},"ş":{"x_min":-9,"x_max":592,"ha":671,"o":"m 74 225 q 134 92 82 136 q 282 49 185 49 q 418 87 369 49 q 468 194 468 126 q 289 338 468 271 l 273 345 q 120 431 160 388 q 80 541 80 474 q 148 684 80 630 q 332 739 217 739 q 520 683 454 739 q 592 519 585 627 l 515 519 q 460 634 507 597 q 320 672 412 672 q 206 638 250 672 q 162 551 162 604 q 190 480 162 508 q 315 413 218 452 q 509 308 466 354 q 553 193 553 262 q 476 38 553 98 q 275 -21 399 -21 q 69 42 142 -21 q -9 225 -2 105 l 74 225 m 49 -282 l 67 -229 q 153 -249 120 -243 q 210 -256 186 -256 q 281 -236 256 -256 q 306 -180 306 -216 q 278 -134 306 -148 q 182 -121 250 -121 l 169 -121 l 210 0 l 254 0 l 229 -76 l 243 -76 q 347 -102 311 -76 q 383 -180 383 -129 q 340 -278 383 -243 q 221 -313 298 -313 q 145 -305 185 -313 q 49 -282 105 -298 "},"ı":{"x_min":-8,"x_max":227,"ha":282,"o":"m -8 0 l 144 721 l 227 721 l 74 0 l -8 0 "},"Ć":{"x_min":64,"x_max":925,"ha":968,"o":"m 872 294 q 721 61 831 148 q 472 -26 611 -26 q 172 91 280 -26 q 64 419 64 209 q 105 655 64 540 q 221 860 146 770 q 380 982 289 940 q 576 1025 471 1025 q 825 939 733 1025 q 925 698 916 854 l 836 698 q 757 881 826 817 q 570 946 688 946 q 278 793 396 946 q 160 419 160 641 q 244 149 160 247 q 478 52 328 52 q 663 117 580 52 q 781 294 746 183 l 872 294 m 574 1100 l 511 1100 l 676 1336 l 777 1336 l 574 1100 "},"ä":{"x_min":-18,"x_max":616.71875,"ha":715,"o":"m 450 82 q 332 4 391 29 q 204 -20 273 -20 q 43 35 104 -20 q -18 181 -18 91 q 9 290 -18 241 q 89 370 36 339 q 313 417 148 406 q 326 419 321 418 q 351 421 334 419 q 535 541 535 435 q 491 634 535 603 q 361 666 448 666 q 210 630 262 666 q 146 518 157 594 l 69 518 q 161 680 85 627 q 373 734 237 734 q 550 685 487 734 q 614 547 614 636 q 611 508 614 530 q 603 461 608 486 l 532 131 q 529 114 530 123 q 528 95 528 106 q 537 66 528 76 q 564 57 546 57 q 590 59 577 57 q 616 66 603 61 l 603 0 q 577 -9 591 -6 q 546 -12 563 -12 q 474 11 498 -12 q 450 82 450 34 m 501 370 q 348 344 449 350 q 208 331 248 339 q 105 280 140 317 q 71 184 71 243 q 111 88 71 124 q 218 53 151 53 q 409 131 338 53 q 501 370 480 210 m 464 867 l 486 977 l 585 977 l 560 867 l 464 867 m 244 867 l 267 977 l 365 977 l 341 867 l 244 867 "},"¹":{"x_min":106,"x_max":367,"ha":488,"o":"m 175 378 l 286 856 q 194 816 238 831 q 106 797 150 801 l 112 836 q 242 885 194 856 q 320 960 289 914 l 367 960 l 230 378 l 175 378 "},"£":{"x_min":40,"x_max":713,"ha":739,"o":"m 62 -21 l 40 64 q 148 196 111 123 q 184 355 184 270 q 183 391 184 369 q 180 440 182 412 l 54 440 l 69 500 l 169 500 q 157 594 160 564 q 154 648 154 625 q 237 882 154 794 q 459 971 321 971 q 646 905 580 971 q 713 722 713 840 q 710 682 713 709 q 708 662 708 668 l 628 662 q 628 669 628 664 q 631 707 631 695 q 586 847 631 800 q 454 894 542 894 q 299 829 360 894 q 239 662 239 764 q 243 590 239 630 q 258 500 248 550 l 496 500 l 479 440 l 265 440 l 266 435 q 270 355 270 379 q 236 209 270 283 q 141 75 202 135 q 196 93 170 87 q 250 100 223 100 q 390 77 300 100 q 514 54 480 54 q 568 63 538 54 q 639 91 598 72 l 618 -5 q 566 -22 593 -17 q 511 -28 540 -28 q 358 -2 454 -28 q 218 23 263 23 q 144 13 180 23 q 62 -21 107 3 "},"W":{"x_min":85,"x_max":1168,"ha":1111,"o":"m 173 0 l 85 999 l 169 999 l 243 161 l 571 999 l 669 999 l 762 161 l 1075 999 l 1168 999 l 788 0 l 701 0 l 603 869 l 268 0 l 173 0 "},"Ğ":{"x_min":64,"x_max":940.421875,"ha":1023,"o":"m 780 131 q 634 12 712 50 q 463 -26 557 -26 q 170 93 277 -26 q 64 419 64 212 q 105 656 64 541 q 221 860 146 771 q 381 982 289 940 q 579 1025 473 1025 q 827 942 732 1025 q 935 718 923 859 l 848 718 q 763 887 834 825 q 582 949 693 949 q 280 797 401 949 q 160 419 160 645 q 244 150 160 248 q 475 52 328 52 q 703 153 604 52 q 834 424 803 255 l 497 424 l 517 500 l 940 500 l 830 -1 l 753 -1 l 780 131 m 491 1309 l 546 1309 l 546 1296 q 571 1229 546 1252 q 647 1207 597 1207 q 746 1231 707 1207 q 808 1309 784 1256 l 865 1309 q 782 1172 837 1217 q 642 1128 727 1128 q 528 1166 567 1128 q 490 1279 490 1205 q 490 1297 490 1291 q 491 1309 490 1303 "},"v":{"x_min":21,"x_max":615,"ha":604,"o":"m 165 0 l 21 721 l 98 721 l 221 112 l 530 721 l 615 721 l 245 0 l 165 0 "},">":{"x_min":179,"x_max":978,"ha":1157,"o":"m 978 434 l 978 392 l 179 66 l 179 125 l 887 413 l 179 700 l 179 762 l 978 434 "},"û":{"x_min":29,"x_max":693,"ha":742,"o":"m 693 721 l 540 0 l 462 0 l 484 107 q 362 14 425 45 q 230 -16 299 -16 q 82 32 136 -16 q 29 167 29 81 q 31 208 29 187 q 38 251 33 229 l 139 721 l 221 721 l 119 239 q 112 200 114 218 q 110 169 110 183 q 145 84 110 114 q 247 55 181 55 q 429 128 360 55 q 533 357 499 202 l 610 721 l 693 721 m 625 814 l 570 814 l 471 982 l 313 814 l 251 814 l 431 1050 l 521 1050 l 625 814 "},"Ð":{"x_min":-4.0625,"x_max":900,"ha":966,"o":"m 113 78 l 312 78 q 497 92 436 78 q 608 140 557 106 q 754 325 700 203 q 808 596 808 448 q 788 737 808 675 q 730 841 768 799 q 640 902 692 884 q 484 920 588 920 l 290 920 l 216 561 l 506 561 l 492 496 l 202 496 l 113 78 m 8 0 l 109 496 l -4 496 l 8 561 l 123 561 l 212 999 l 481 999 q 664 981 607 999 q 769 923 720 964 q 866 784 833 870 q 900 588 900 699 q 855 332 900 452 q 729 130 810 212 q 573 30 659 60 q 311 0 488 0 l 248 0 l 8 0 "},"r":{"x_min":-5,"x_max":437,"ha":401,"o":"m -5 0 l 141 721 l 218 721 l 198 626 q 293 713 251 687 q 378 739 334 739 q 406 736 392 739 q 437 727 421 733 l 419 647 q 389 650 401 649 q 370 652 378 651 q 236 583 287 652 q 153 362 184 515 l 80 0 l -5 0 "},"Č":{"x_min":64,"x_max":925,"ha":968,"o":"m 872 294 q 721 61 831 148 q 472 -26 611 -26 q 172 91 280 -26 q 64 419 64 209 q 105 655 64 540 q 221 860 146 770 q 380 982 289 940 q 576 1025 471 1025 q 825 939 733 1025 q 925 698 916 854 l 836 698 q 757 881 826 817 q 570 946 688 946 q 278 793 396 946 q 160 419 160 641 q 244 149 160 247 q 478 52 328 52 q 663 117 580 52 q 781 294 746 183 l 872 294 m 443 1336 l 497 1336 l 595 1167 l 754 1336 l 817 1336 l 636 1100 l 546 1100 l 443 1336 "},"x":{"x_min":-89,"x_max":588,"ha":586,"o":"m -89 0 l 216 385 l 33 721 l 117 721 l 270 445 l 488 721 l 588 721 l 308 371 l 514 0 l 422 0 l 258 309 l 10 0 l -89 0 "},"è":{"x_min":18,"x_max":661,"ha":746,"o":"m 121 427 l 576 427 q 577 443 577 435 q 578 462 578 451 q 526 611 578 556 q 385 666 474 666 q 219 605 286 666 q 121 427 152 545 m 536 221 l 617 221 q 506 43 587 105 q 304 -18 425 -18 q 92 62 166 -18 q 18 290 18 142 q 119 611 18 485 q 378 737 221 737 q 587 657 513 737 q 661 433 661 578 q 656 366 661 415 q 655 350 655 355 l 108 350 q 105 306 106 326 q 104 269 104 286 q 159 112 104 169 q 311 55 214 55 q 451 97 393 55 q 536 221 509 140 m 485 814 l 425 814 l 233 1050 l 334 1050 l 485 814 "},"Ø":{"x_min":22.234375,"x_max":1012.59375,"ha":1040,"o":"m 797 866 q 707 926 760 906 q 579 946 654 946 q 276 795 395 946 q 158 411 158 644 q 170 292 158 345 q 208 191 182 238 l 797 866 m 250 134 q 347 71 294 91 q 468 51 399 51 q 765 205 647 51 q 883 599 883 360 q 872 712 883 661 q 838 809 861 764 l 250 134 m 22 -22 l 143 117 q 81 253 101 183 q 62 406 62 323 q 105 659 62 540 q 230 869 149 779 q 391 986 302 947 q 588 1026 479 1026 q 741 1003 676 1026 q 857 935 807 981 l 958 1053 l 1012 1011 l 901 883 q 959 749 940 819 q 978 592 978 679 q 935 341 978 461 q 814 132 893 222 q 655 12 747 53 q 457 -28 564 -28 q 304 -6 368 -28 q 189 63 239 15 l 73 -68 l 22 -22 "},"÷":{"x_min":173,"x_max":987,"ha":1157,"o":"m 580 247 q 627 226 608 247 q 647 178 647 206 q 627 131 647 151 q 580 112 608 112 q 532 131 551 112 q 513 178 513 150 q 532 226 513 206 q 580 247 552 247 m 987 442 l 987 386 l 173 386 l 173 442 l 987 442 m 580 716 q 627 696 608 716 q 647 648 647 677 q 627 601 647 621 q 580 581 608 581 q 532 601 551 581 q 513 648 513 621 q 532 696 513 676 q 580 716 551 716 "},"h":{"x_min":-8,"x_max":655,"ha":745,"o":"m -8 0 l 202 999 l 286 999 l 205 617 q 325 706 264 677 q 454 736 387 736 q 601 686 548 736 q 655 551 655 637 q 652 511 655 531 q 644 467 650 491 l 546 0 l 462 0 l 563 478 q 571 519 568 500 q 574 550 574 537 q 538 634 574 604 q 436 664 502 664 q 253 590 323 664 q 149 360 183 516 l 73 0 l -8 0 "},".":{"x_min":40,"x_max":171,"ha":370,"o":"m 40 0 l 65 123 l 171 123 l 144 0 l 40 0 "},"f":{"x_min":17,"x_max":431,"ha":338,"o":"m 17 0 l 155 656 l 42 656 l 58 721 l 169 721 l 193 830 q 250 971 215 935 q 350 1008 285 1008 q 386 1005 366 1008 q 431 996 405 1002 l 416 926 q 382 932 397 930 q 358 935 367 935 q 305 915 323 935 q 273 829 287 895 l 251 721 l 375 721 l 363 656 l 237 656 l 98 0 l 17 0 "},"“":{"x_min":151,"x_max":498,"ha":514,"o":"m 151 714 l 176 835 q 227 974 196 936 q 321 1025 258 1012 l 310 976 q 257 931 276 962 q 227 835 239 900 l 275 835 l 250 714 l 151 714 m 328 714 l 353 835 q 404 974 373 936 q 498 1025 436 1012 l 487 976 q 436 933 453 963 q 406 835 418 902 l 452 835 l 427 714 l 328 714 "},"A":{"x_min":-79,"x_max":749,"ha":804,"o":"m 218 387 l 584 387 l 490 914 l 218 387 m -79 0 l 450 999 l 555 999 l 749 0 l 654 0 l 600 311 l 180 311 l 19 0 l -79 0 "},"O":{"x_min":62,"x_max":978,"ha":1040,"o":"m 573 947 q 276 793 397 947 q 156 412 156 639 q 237 146 156 242 q 463 50 319 50 q 762 205 643 50 q 882 597 882 360 q 803 857 882 768 q 573 947 725 947 m 456 -31 q 166 86 270 -31 q 62 412 62 203 q 106 661 62 539 q 230 869 151 783 q 389 987 301 947 q 577 1028 476 1028 q 874 915 770 1028 q 978 595 978 803 q 935 344 978 465 q 816 133 893 223 q 656 11 750 54 q 456 -31 562 -31 "},"π":{"x_min":4,"x_max":764,"ha":783,"o":"m 747 650 l 624 650 l 543 266 q 528 190 533 224 q 523 138 523 157 q 540 82 523 98 q 597 66 557 66 q 631 67 616 66 q 660 72 646 69 l 643 0 q 607 -8 623 -6 q 578 -11 592 -11 q 479 25 515 -11 q 443 126 443 62 q 450 209 443 157 q 481 364 458 260 l 540 650 l 282 650 l 144 0 l 62 0 l 198 650 l 172 650 q 114 628 134 650 q 86 559 93 606 l 4 559 q 61 686 20 651 q 201 721 102 721 l 764 721 l 747 650 "},"‘":{"x_min":153,"x_max":323,"ha":338,"o":"m 153 714 l 178 835 q 229 974 198 936 q 323 1025 261 1012 l 312 976 q 259 931 278 962 q 229 835 241 900 l 277 835 l 252 714 l 153 714 "},"3":{"x_min":29,"x_max":682,"ha":739,"o":"m 114 255 q 174 101 117 157 q 326 46 230 46 q 489 111 425 46 q 554 280 554 176 q 497 412 554 368 q 327 457 440 457 l 285 457 l 300 530 l 333 529 l 352 529 q 535 579 471 529 q 599 726 599 630 q 548 848 599 801 q 416 896 497 896 q 278 846 333 896 q 205 706 223 797 l 122 706 q 219 900 143 833 q 418 968 295 968 q 609 901 536 968 q 682 730 682 835 q 638 578 682 642 q 516 487 595 515 q 609 401 579 455 q 640 269 640 347 q 555 51 640 132 q 328 -29 471 -29 q 110 46 190 -29 q 29 255 30 122 l 114 255 "},"9":{"x_min":35,"x_max":686,"ha":739,"o":"m 360 389 q 528 469 465 389 q 592 682 592 549 q 539 839 592 781 q 398 898 487 898 q 237 812 302 898 q 172 600 172 726 q 221 444 172 500 q 360 389 270 389 m 581 436 q 469 348 529 377 q 340 320 409 320 q 153 397 225 320 q 82 600 82 474 q 172 867 82 761 q 399 973 263 973 q 612 884 539 973 q 686 625 686 795 q 571 156 686 339 q 278 -26 456 -26 q 101 37 167 -26 q 35 207 35 100 l 35 222 l 116 222 q 160 94 117 139 q 282 49 203 49 q 466 150 387 49 q 581 436 545 252 "},"l":{"x_min":-8,"x_max":286,"ha":282,"o":"m -8 0 l 204 999 l 286 999 l 73 0 l -8 0 "},"":{"x_min":17,"x_max":644,"ha":635,"o":"m 17 0 l 155 656 l 42 656 l 58 721 l 169 721 l 193 830 q 250 971 215 935 q 350 1008 284 1008 q 385 1005 366 1008 q 430 996 405 1002 l 416 927 q 382 933 396 931 q 358 935 367 935 q 305 915 322 935 q 273 829 287 896 l 251 721 l 375 721 l 362 656 l 237 656 l 98 0 l 17 0 m 525 885 l 548 999 l 644 999 l 620 885 l 525 885 m 346 0 l 498 721 l 581 721 l 428 0 l 346 0 "},"4":{"x_min":17,"x_max":675,"ha":739,"o":"m 373 0 l 428 245 l 17 245 l 30 317 l 579 943 l 661 943 l 530 312 l 675 312 l 658 245 l 514 245 l 461 0 l 373 0 m 120 312 l 447 312 l 548 799 l 120 312 "},"Ü":{"x_min":72,"x_max":950,"ha":960,"o":"m 216 999 l 308 999 l 183 398 q 171 326 175 359 q 167 266 167 294 q 232 111 167 170 q 405 53 297 53 q 614 123 539 53 q 723 354 689 194 l 859 999 l 950 999 l 823 381 q 681 61 775 151 q 408 -28 587 -28 q 163 48 254 -28 q 72 250 72 125 q 92 413 72 314 q 94 422 93 419 l 216 999 m 675 1153 l 697 1263 l 796 1263 l 771 1153 l 675 1153 m 455 1153 l 478 1263 l 576 1263 l 552 1153 l 455 1153 "},"à":{"x_min":-18,"x_max":616.71875,"ha":715,"o":"m 450 82 q 332 4 391 29 q 204 -20 273 -20 q 43 35 104 -20 q -18 181 -18 91 q 9 290 -18 241 q 89 370 36 339 q 313 417 148 406 q 326 419 321 418 q 351 421 334 419 q 535 541 535 435 q 491 634 535 603 q 361 666 448 666 q 210 630 262 666 q 146 518 157 594 l 69 518 q 161 680 85 627 q 373 734 237 734 q 550 685 487 734 q 614 547 614 636 q 611 508 614 530 q 603 461 608 486 l 532 131 q 529 114 530 123 q 528 95 528 106 q 537 66 528 76 q 564 57 546 57 q 590 59 577 57 q 616 66 603 61 l 603 0 q 577 -9 591 -6 q 546 -12 563 -12 q 474 11 498 -12 q 450 82 450 34 m 501 370 q 348 344 449 350 q 208 331 248 339 q 105 280 140 317 q 71 184 71 243 q 111 88 71 124 q 218 53 151 53 q 409 131 338 53 q 501 370 480 210 m 478 814 l 418 814 l 226 1050 l 327 1050 l 478 814 "},"ó":{"x_min":18,"x_max":681,"ha":764,"o":"m 382 671 q 184 561 263 671 q 105 289 105 452 q 159 113 105 175 q 312 52 213 52 q 512 162 431 52 q 593 433 593 273 q 539 611 593 551 q 382 671 486 671 m 18 288 q 123 611 18 481 q 388 742 229 742 q 604 660 528 742 q 681 429 681 578 q 577 105 681 231 q 311 -21 474 -21 q 95 61 172 -21 q 18 288 18 143 m 396 814 l 333 814 l 498 1050 l 599 1050 l 396 814 "}}}
